<svg width="424" height="301" viewBox="0 0 424 301" fill="none" xmlns="http://www.w3.org/2000/svg">
<g clip-path="url(#clip0)">
<path opacity="0.1" d="M419.528 261.226C417.888 265.261 415.872 269.133 413.507 272.791C412.396 274.535 411.178 276.209 409.859 277.803L409.819 277.85H2.05481L2.12819 277.799C2.4951 277.513 4.64886 275.77 7.99874 272.787C10.402 270.644 13.418 267.863 16.8046 264.517C44.5025 237.274 97.708 172.79 53.3964 113.717C12.2035 58.802 56.5555 48.8331 85.8128 47.6736C97.0546 47.2372 108.269 49.0703 118.787 53.0635C132.3 58.2003 157.004 66.0778 189.189 69.6845C190.246 69.8044 191.313 69.9193 192.389 70.0294C209.429 71.763 226.584 72.0735 243.675 70.9577V70.9577C244.178 70.932 244.684 70.8953 245.194 70.8586C262.102 69.6682 278.882 67.0713 295.358 63.0948C296.426 62.8343 297.479 62.5885 298.528 62.361C353.429 49.6586 404.04 92.9502 391.389 141.878C386.708 159.97 387.896 179.262 403.497 194.863C429.016 220.341 425.908 245.423 419.528 261.226Z" fill="#262626"/>
<path d="M332.798 124.143C334.187 121.658 333.775 118.783 331.877 117.722C329.979 116.661 327.314 117.815 325.925 120.3C324.536 122.785 324.948 125.66 326.846 126.721C328.743 127.782 331.408 126.628 332.798 124.143Z" fill="#056AD4"/>
<path d="M335.87 118.643C337.26 116.158 336.848 113.283 334.95 112.222C333.052 111.161 330.387 112.315 328.998 114.8C327.608 117.285 328.02 120.16 329.918 121.221C331.816 122.282 334.481 121.128 335.87 118.643Z" fill="#056AD4"/>
<path d="M338.947 113.145C340.336 110.66 339.924 107.785 338.026 106.724C336.128 105.663 333.464 106.817 332.074 109.302C330.685 111.787 331.097 114.662 332.995 115.723C334.893 116.784 337.557 115.63 338.947 113.145Z" fill="#056AD4"/>
<path d="M342.019 107.641C343.409 105.156 342.997 102.282 341.099 101.221C339.201 100.159 336.536 101.314 335.147 103.799C333.757 106.284 334.17 109.159 336.067 110.22C337.965 111.281 340.63 110.126 342.019 107.641Z" fill="#056AD4"/>
<path d="M345.091 102.145C346.48 99.6595 346.068 96.7848 344.171 95.7237C342.273 94.6626 339.608 95.817 338.218 98.302C336.829 100.787 337.241 103.662 339.139 104.723C341.037 105.784 343.702 104.63 345.091 102.145Z" fill="#056AD4"/>
<path d="M348.168 96.6445C349.557 94.1595 349.145 91.2848 347.247 90.2237C345.35 89.1626 342.685 90.3169 341.295 92.802C339.906 95.287 340.318 98.1617 342.216 99.2228C344.114 100.284 346.778 99.1296 348.168 96.6445Z" fill="#056AD4"/>
<path d="M351.244 91.1465C352.634 88.6615 352.222 85.7867 350.324 84.7257C348.426 83.6646 345.761 84.8189 344.372 87.3039C342.982 89.789 343.394 92.6636 345.292 93.7247C347.19 94.7858 349.855 93.6315 351.244 91.1465Z" fill="#056AD4"/>
<path d="M381.696 58.7763C382.499 58.4407 383.279 58.0509 384.029 57.6096L375.829 51.0749L385.548 56.6079C387.624 55.093 389.37 53.1705 390.677 50.9581C391.985 48.7456 392.828 46.2897 393.154 43.7404L376.251 43.2121L393.301 41.0877C393.281 38.4867 392.723 35.9179 391.663 33.5427C390.603 31.1676 389.063 29.0374 387.139 27.2861C385.216 25.5347 382.952 24.2001 380.488 23.3659C378.024 22.5318 375.415 22.2162 372.823 22.439C370.232 22.6617 367.714 23.4181 365.429 24.6605C363.144 25.9029 361.14 27.6045 359.544 29.6584C357.948 31.7123 356.794 34.0741 356.155 36.5953C355.516 39.1166 355.404 41.7429 355.829 44.3091C354.577 44.8307 353.385 45.4851 352.273 46.2611L360.599 58.9048L350.446 47.7214C348.117 49.8245 346.349 52.4754 345.303 55.434C344.257 58.3926 343.965 61.5655 344.455 64.6652C341.188 66.0263 338.37 68.2791 336.323 71.166C334.276 74.053 333.083 77.4576 332.88 80.9906C332.677 84.5237 333.472 88.0427 335.174 91.1453C336.876 94.2478 339.417 96.8089 342.506 98.5356C345.595 100.262 349.108 101.085 352.642 100.91C356.177 100.734 359.591 99.568 362.494 97.544C365.397 95.52 367.672 92.7201 369.059 89.4643C370.445 86.2084 370.888 82.6281 370.336 79.1325C374.24 77.5065 377.484 74.6153 379.547 70.9235C381.61 67.2316 382.372 62.9534 381.71 58.7763H381.696Z" fill="#262626"/>
<path opacity="0.1" d="M346.605 52.5167C344.543 56.2094 343.785 60.4891 344.455 64.6651C341.188 66.0262 338.37 68.279 336.323 71.1659C334.276 74.0529 333.083 77.4575 332.88 80.9905C332.677 84.5236 333.472 88.0426 335.174 91.1452C336.876 94.2478 339.417 96.8088 342.506 98.5355C345.595 100.262 349.108 101.085 352.642 100.91C356.177 100.734 359.591 99.5679 362.494 97.5439C365.397 95.52 367.672 92.72 369.059 89.4642C370.445 86.2083 370.888 82.628 370.336 79.1323C374.09 77.5656 347.639 50.6822 346.605 52.5167Z" fill="black"/>
<path d="M371.088 254.302H375.531C377.964 254.302 380.297 255.269 382.017 256.989C383.738 258.709 384.704 261.042 384.704 263.475V277.091H361.915V263.475C361.915 261.042 362.882 258.709 364.602 256.989C366.322 255.269 368.655 254.302 371.088 254.302V254.302Z" fill="#056AD4"/>
<path opacity="0.1" d="M371.088 254.302H375.531C377.964 254.302 380.297 255.269 382.017 256.989C383.738 258.709 384.704 261.042 384.704 263.475V277.091H361.915V263.475C361.915 261.042 362.882 258.709 364.602 256.989C366.322 255.269 368.655 254.302 371.088 254.302Z" fill="black"/>
<path d="M372.401 259.318C373.408 259.318 374.225 258.501 374.225 257.494C374.225 256.487 373.408 255.671 372.401 255.671C371.394 255.671 370.578 256.487 370.578 257.494C370.578 258.501 371.394 259.318 372.401 259.318Z" fill="#056AD4"/>
<path d="M372.401 257.039C373.408 257.039 374.225 256.223 374.225 255.216C374.225 254.209 373.408 253.392 372.401 253.392C371.394 253.392 370.578 254.209 370.578 255.216C370.578 256.223 371.394 257.039 372.401 257.039Z" fill="#056AD4"/>
<path d="M372.401 254.757C373.408 254.757 374.225 253.941 374.225 252.934C374.225 251.927 373.408 251.11 372.401 251.11C371.394 251.11 370.578 251.927 370.578 252.934C370.578 253.941 371.394 254.757 372.401 254.757Z" fill="#056AD4"/>
<path d="M372.401 252.479C373.408 252.479 374.225 251.662 374.225 250.655C374.225 249.648 373.408 248.832 372.401 248.832C371.394 248.832 370.578 249.648 370.578 250.655C370.578 251.662 371.394 252.479 372.401 252.479Z" fill="#056AD4"/>
<path d="M372.401 250.2C373.408 250.2 374.225 249.384 374.225 248.377C374.225 247.369 373.408 246.553 372.401 246.553C371.394 246.553 370.578 247.369 370.578 248.377C370.578 249.384 371.394 250.2 372.401 250.2Z" fill="#056AD4"/>
<path d="M372.401 247.922C373.408 247.922 374.225 247.105 374.225 246.098C374.225 245.091 373.408 244.274 372.401 244.274C371.394 244.274 370.578 245.091 370.578 246.098C370.578 247.105 371.394 247.922 372.401 247.922Z" fill="#056AD4"/>
<path d="M372.401 245.643C373.408 245.643 374.225 244.827 374.225 243.819C374.225 242.812 373.408 241.996 372.401 241.996C371.394 241.996 370.578 242.812 370.578 243.819C370.578 244.827 371.394 245.643 372.401 245.643Z" fill="#056AD4"/>
<path d="M375.135 246.553C376.142 246.553 376.959 245.736 376.959 244.729C376.959 243.722 376.142 242.906 375.135 242.906C374.128 242.906 373.312 243.722 373.312 244.729C373.312 245.736 374.128 246.553 375.135 246.553Z" fill="#056AD4"/>
<path d="M376.959 245.643C377.966 245.643 378.783 244.827 378.783 243.819C378.783 242.812 377.966 241.996 376.959 241.996C375.952 241.996 375.135 242.812 375.135 243.819C375.135 244.827 375.952 245.643 376.959 245.643Z" fill="#056AD4"/>
<path d="M378.782 244.729C379.789 244.729 380.606 243.913 380.606 242.906C380.606 241.899 379.789 241.082 378.782 241.082C377.775 241.082 376.959 241.899 376.959 242.906C376.959 243.913 377.775 244.729 378.782 244.729Z" fill="#056AD4"/>
<path d="M372.401 243.365C373.408 243.365 374.225 242.548 374.225 241.541C374.225 240.534 373.408 239.718 372.401 239.718C371.394 239.718 370.578 240.534 370.578 241.541C370.578 242.548 371.394 243.365 372.401 243.365Z" fill="#056AD4"/>
<path d="M372.401 241.086C373.408 241.086 374.225 240.27 374.225 239.263C374.225 238.255 373.408 237.439 372.401 237.439C371.394 237.439 370.578 238.255 370.578 239.263C370.578 240.27 371.394 241.086 372.401 241.086Z" fill="#056AD4"/>
<path d="M372.401 238.804C373.408 238.804 374.225 237.988 374.225 236.981C374.225 235.973 373.408 235.157 372.401 235.157C371.394 235.157 370.578 235.973 370.578 236.981C370.578 237.988 371.394 238.804 372.401 238.804Z" fill="#056AD4"/>
<path d="M372.401 236.525C373.408 236.525 374.225 235.709 374.225 234.702C374.225 233.695 373.408 232.878 372.401 232.878C371.394 232.878 370.578 233.695 370.578 234.702C370.578 235.709 371.394 236.525 372.401 236.525Z" fill="#056AD4"/>
<path d="M379.96 228.824C379.507 228.89 379.052 228.938 378.595 228.967C379.018 228.598 379.411 228.196 379.769 227.764C379.516 226.997 379.145 226.276 378.668 225.625C378.216 225.879 377.717 226.037 377.201 226.091C376.749 226.157 376.294 226.204 375.839 226.234C376.452 225.653 377.034 225.04 377.582 224.399C376.267 223.207 374.582 222.503 372.809 222.405C371.037 222.308 369.285 222.822 367.846 223.862C366.408 224.903 365.371 226.406 364.908 228.119C364.446 229.833 364.587 231.654 365.307 233.277C366.028 234.899 367.284 236.225 368.865 237.031C370.446 237.838 372.257 238.077 373.993 237.708C375.729 237.339 377.286 236.384 378.402 235.004C379.519 233.624 380.127 231.902 380.125 230.127C380.125 229.68 380.086 229.234 380.008 228.795L379.96 228.824Z" fill="#262626"/>
<path d="M386.051 237.883C385.585 238.169 385.061 238.344 384.517 238.396C384.066 238.463 383.611 238.51 383.156 238.54C383.639 238.106 384.091 237.637 384.506 237.138C384.125 237.038 383.733 236.986 383.339 236.984C382.254 236.982 381.204 237.367 380.376 238.069C379.549 238.771 378.999 239.745 378.825 240.817C378.651 241.888 378.865 242.986 379.427 243.914C379.99 244.842 380.864 245.539 381.894 245.881C382.924 246.222 384.042 246.186 385.048 245.777C386.053 245.369 386.88 244.616 387.381 243.653C387.881 242.69 388.022 241.58 387.778 240.523C387.535 239.465 386.922 238.529 386.051 237.883V237.883Z" fill="#262626"/>
<path d="M369.665 246.553C370.672 246.553 371.488 245.736 371.488 244.729C371.488 243.722 370.672 242.906 369.665 242.906C368.658 242.906 367.841 243.722 367.841 244.729C367.841 245.736 368.658 246.553 369.665 246.553Z" fill="#056AD4"/>
<path d="M367.841 245.643C368.848 245.643 369.665 244.827 369.665 243.819C369.665 242.812 368.848 241.996 367.841 241.996C366.834 241.996 366.018 242.812 366.018 243.819C366.018 244.827 366.834 245.643 367.841 245.643Z" fill="#056AD4"/>
<path d="M366.021 244.729C367.028 244.729 367.845 243.913 367.845 242.906C367.845 241.899 367.028 241.082 366.021 241.082C365.014 241.082 364.197 241.899 364.197 242.906C364.197 243.913 365.014 244.729 366.021 244.729Z" fill="#056AD4"/>
<path d="M358.763 237.883C359.229 238.169 359.753 238.344 360.297 238.396C360.748 238.463 361.203 238.51 361.658 238.54C361.175 238.106 360.723 237.637 360.308 237.138C360.689 237.038 361.081 236.986 361.475 236.984C362.56 236.982 363.61 237.367 364.437 238.069C365.265 238.771 365.814 239.745 365.988 240.817C366.162 241.888 365.949 242.986 365.387 243.914C364.824 244.842 363.949 245.539 362.919 245.881C361.889 246.222 360.771 246.186 359.766 245.777C358.76 245.369 357.933 244.616 357.433 243.653C356.933 242.69 356.792 241.58 357.035 240.523C357.279 239.465 357.892 238.529 358.763 237.883V237.883Z" fill="#262626"/>
<path d="M371.088 255.671H375.531C377.964 255.671 380.297 256.637 382.017 258.357C383.738 260.078 384.704 262.411 384.704 264.843V276.904C384.704 277.316 384.54 277.712 384.248 278.004C383.957 278.295 383.561 278.459 383.148 278.459H363.471C363.058 278.459 362.663 278.295 362.371 278.004C362.079 277.712 361.915 277.316 361.915 276.904V264.843C361.915 262.411 362.882 260.078 364.602 258.357C366.322 256.637 368.655 255.671 371.088 255.671V255.671Z" fill="#056AD4"/>
<g opacity="0.1">
<path opacity="0.1" d="M380.099 229.323C379.916 229.522 379.718 229.709 379.509 229.881C379.718 229.881 379.927 229.848 380.132 229.826C380.125 229.657 380.118 229.488 380.099 229.323Z" fill="black"/>
<path opacity="0.1" d="M376.775 227.144C377.23 227.114 377.685 227.067 378.136 227.001C378.545 226.951 378.944 226.842 379.321 226.678C379.135 226.311 378.921 225.959 378.683 225.625C378.455 225.764 378.207 225.869 377.949 225.937C377.589 226.369 377.197 226.772 376.775 227.144Z" fill="black"/>
<path opacity="0.1" d="M365.562 231.059C365.559 229.667 365.932 228.301 366.64 227.104C367.349 225.907 368.367 224.923 369.588 224.256C370.808 223.589 372.186 223.264 373.576 223.314C374.967 223.364 376.317 223.789 377.487 224.542L377.604 224.417C376.841 223.739 375.951 223.217 374.986 222.884C374.02 222.55 372.998 222.411 371.979 222.474C370.959 222.538 369.962 222.802 369.046 223.252C368.129 223.702 367.31 224.329 366.637 225.097C365.963 225.865 365.449 226.759 365.122 227.727C364.796 228.695 364.664 229.718 364.735 230.737C364.805 231.756 365.077 232.751 365.534 233.664C365.991 234.578 366.624 235.392 367.397 236.059C366.21 234.664 365.56 232.891 365.562 231.059Z" fill="black"/>
</g>
<g opacity="0.1">
<path opacity="0.1" d="M383.156 239.453C383.611 239.42 384.066 239.373 384.517 239.306C385.06 239.255 385.585 239.081 386.051 238.796C386.566 239.175 386.996 239.659 387.313 240.215C387.629 240.771 387.824 241.388 387.885 242.025C387.903 241.864 387.911 241.703 387.911 241.541C387.914 240.828 387.75 240.125 387.431 239.488C387.112 238.85 386.648 238.297 386.076 237.872C385.611 238.158 385.086 238.333 384.543 238.386L384.176 238.43C383.864 238.797 383.522 239.14 383.156 239.453Z" fill="black"/>
<path opacity="0.1" d="M383.346 237.894C383.501 237.894 383.651 237.894 383.801 237.927C384.04 237.674 384.275 237.402 384.513 237.138C384.132 237.038 383.74 236.986 383.346 236.984C382.138 236.984 380.979 237.464 380.124 238.319C379.27 239.173 378.789 240.332 378.789 241.541C378.789 241.695 378.789 241.849 378.811 241.996C378.925 240.872 379.452 239.83 380.29 239.072C381.127 238.314 382.217 237.894 383.346 237.894Z" fill="black"/>
</g>
<g opacity="0.1">
<path opacity="0.1" d="M361.644 239.453C361.189 239.42 360.734 239.373 360.283 239.306C359.739 239.255 359.215 239.081 358.749 238.796C358.233 239.175 357.803 239.659 357.487 240.215C357.171 240.771 356.976 241.388 356.914 242.025C356.897 241.864 356.888 241.703 356.889 241.541C356.886 240.828 357.05 240.125 357.369 239.488C357.687 238.85 358.151 238.297 358.723 237.872C359.189 238.158 359.713 238.333 360.257 238.386L360.624 238.43C360.937 238.797 361.278 239.139 361.644 239.453Z" fill="black"/>
<path opacity="0.1" d="M361.46 237.894C361.306 237.894 361.156 237.894 361.005 237.927C360.767 237.674 360.532 237.402 360.294 237.138C360.675 237.038 361.067 236.986 361.46 236.984C362.669 236.984 363.828 237.464 364.683 238.319C365.537 239.173 366.017 240.332 366.017 241.541C366.017 241.695 366.017 241.849 365.995 241.996C365.882 240.872 365.355 239.83 364.517 239.072C363.679 238.314 362.59 237.894 361.46 237.894Z" fill="black"/>
</g>
<path d="M20.9138 220.264H55.9683C58.4011 220.264 60.7342 221.23 62.4544 222.95C64.1746 224.671 65.141 227.004 65.141 229.436V273.645H11.7411V229.436C11.7411 227.004 12.7075 224.671 14.4277 222.95C16.1479 221.23 18.4811 220.264 20.9138 220.264V220.264Z" fill="#056AD4"/>
<path opacity="0.1" d="M20.9138 220.264H55.9683C58.4011 220.264 60.7342 221.23 62.4544 222.95C64.1746 224.671 65.141 227.004 65.141 229.436V273.645H11.7411V229.436C11.7411 227.004 12.7075 224.671 14.4277 222.95C16.1479 221.23 18.4811 220.264 20.9138 220.264Z" fill="black"/>
<path d="M36.3131 231.994C38.6718 231.994 40.584 230.082 40.584 227.723C40.584 225.365 38.6718 223.453 36.3131 223.453C33.9544 223.453 32.0423 225.365 32.0423 227.723C32.0423 230.082 33.9544 231.994 36.3131 231.994Z" fill="#056AD4"/>
<path d="M36.3131 226.656C38.6718 226.656 40.584 224.744 40.584 222.385C40.584 220.026 38.6718 218.114 36.3131 218.114C33.9544 218.114 32.0423 220.026 32.0423 222.385C32.0423 224.744 33.9544 226.656 36.3131 226.656Z" fill="#056AD4"/>
<path d="M36.3131 221.314C38.6718 221.314 40.584 219.402 40.584 217.043C40.584 214.684 38.6718 212.772 36.3131 212.772C33.9544 212.772 32.0423 214.684 32.0423 217.043C32.0423 219.402 33.9544 221.314 36.3131 221.314Z" fill="#056AD4"/>
<path d="M36.3131 215.975C38.6718 215.975 40.584 214.063 40.584 211.704C40.584 209.345 38.6718 207.433 36.3131 207.433C33.9544 207.433 32.0423 209.345 32.0423 211.704C32.0423 214.063 33.9544 215.975 36.3131 215.975Z" fill="#056AD4"/>
<path d="M36.3131 210.632C38.6718 210.632 40.584 208.72 40.584 206.362C40.584 204.003 38.6718 202.091 36.3131 202.091C33.9544 202.091 32.0423 204.003 32.0423 206.362C32.0423 208.72 33.9544 210.632 36.3131 210.632Z" fill="#056AD4"/>
<path d="M36.3131 205.294C38.6718 205.294 40.584 203.382 40.584 201.023C40.584 198.664 38.6718 196.752 36.3131 196.752C33.9544 196.752 32.0423 198.664 32.0423 201.023C32.0423 203.382 33.9544 205.294 36.3131 205.294Z" fill="#056AD4"/>
<path d="M36.3131 199.955C38.6718 199.955 40.584 198.043 40.584 195.685C40.584 193.326 38.6718 191.414 36.3131 191.414C33.9544 191.414 32.0423 193.326 32.0423 195.685C32.0423 198.043 33.9544 199.955 36.3131 199.955Z" fill="#056AD4"/>
<path d="M42.7192 202.091C45.0779 202.091 46.99 200.179 46.99 197.82C46.99 195.461 45.0779 193.549 42.7192 193.549C40.3605 193.549 38.4484 195.461 38.4484 197.82C38.4484 200.179 40.3605 202.091 42.7192 202.091Z" fill="#056AD4"/>
<path d="M46.9901 199.955C49.3488 199.955 51.2609 198.043 51.2609 195.685C51.2609 193.326 49.3488 191.414 46.9901 191.414C44.6314 191.414 42.7193 193.326 42.7193 195.685C42.7193 198.043 44.6314 199.955 46.9901 199.955Z" fill="#056AD4"/>
<path d="M51.2647 197.816C53.6234 197.816 55.5355 195.904 55.5355 193.545C55.5355 191.187 53.6234 189.275 51.2647 189.275C48.9059 189.275 46.9938 191.187 46.9938 193.545C46.9938 195.904 48.9059 197.816 51.2647 197.816Z" fill="#056AD4"/>
<path d="M36.3131 194.613C38.6718 194.613 40.584 192.701 40.584 190.342C40.584 187.984 38.6718 186.072 36.3131 186.072C33.9544 186.072 32.0423 187.984 32.0423 190.342C32.0423 192.701 33.9544 194.613 36.3131 194.613Z" fill="#056AD4"/>
<path d="M36.3131 189.275C38.6718 189.275 40.584 187.363 40.584 185.004C40.584 182.646 38.6718 180.733 36.3131 180.733C33.9544 180.733 32.0423 182.646 32.0423 185.004C32.0423 187.363 33.9544 189.275 36.3131 189.275Z" fill="#056AD4"/>
<path d="M36.3131 183.933C38.6718 183.933 40.584 182.021 40.584 179.662C40.584 177.303 38.6718 175.391 36.3131 175.391C33.9544 175.391 32.0423 177.303 32.0423 179.662C32.0423 182.021 33.9544 183.933 36.3131 183.933Z" fill="#056AD4"/>
<path d="M36.3131 178.594C38.6718 178.594 40.584 176.682 40.584 174.323C40.584 171.965 38.6718 170.052 36.3131 170.052C33.9544 170.052 32.0423 171.965 32.0423 174.323C32.0423 176.682 33.9544 178.594 36.3131 178.594Z" fill="#056AD4"/>
<path d="M54.0237 160.546C52.9646 160.7 51.9005 160.813 50.8316 160.883C51.8208 160.017 52.7397 159.074 53.5797 158.062C52.9971 156.269 52.1379 154.578 51.0334 153.05C49.9824 153.65 48.8178 154.025 47.6138 154.151C46.5571 154.305 45.4894 154.419 44.4217 154.492C45.827 153.355 47.1295 151.634 48.5054 150.236C45.3156 147.339 41.2012 145.668 36.8947 145.521C32.5883 145.373 28.3693 146.759 24.989 149.431C21.6088 152.104 19.2865 155.889 18.4358 160.113C17.5852 164.337 18.2612 168.726 20.3437 172.498C22.4261 176.271 25.7798 179.182 29.8075 180.713C33.8353 182.244 38.2757 182.296 42.3382 180.859C46.4007 179.423 49.8216 176.591 51.9917 172.869C54.1619 169.146 54.9404 164.774 54.1888 160.531L54.0237 160.546Z" fill="#262626"/>
<path d="M68.2964 181.775C67.291 182.483 65.9555 182.788 64.7043 182.971C63.644 183.129 62.5799 183.239 61.5122 183.313C62.613 182.428 63.6256 181.196 64.675 180.032C62.1041 179.35 59.3711 179.651 57.0102 180.876C54.6492 182.102 52.83 184.163 51.908 186.658C50.986 189.153 51.0275 191.902 52.0243 194.368C53.0212 196.834 54.9018 198.84 57.2986 199.994C59.6954 201.147 62.4362 201.365 64.9854 200.606C67.5345 199.846 69.7089 198.164 71.0836 195.886C72.4582 193.609 72.9344 190.901 72.4189 188.292C71.9035 185.682 70.4336 183.359 68.2964 181.775V181.775Z" fill="#262626"/>
<path d="M29.9031 202.091C32.2618 202.091 34.1739 200.179 34.1739 197.82C34.1739 195.461 32.2618 193.549 29.9031 193.549C27.5444 193.549 25.6323 195.461 25.6323 197.82C25.6323 200.179 27.5444 202.091 29.9031 202.091Z" fill="#056AD4"/>
<path d="M25.6323 199.955C27.991 199.955 29.9031 198.043 29.9031 195.685C29.9031 193.326 27.991 191.414 25.6323 191.414C23.2736 191.414 21.3615 193.326 21.3615 195.685C21.3615 198.043 23.2736 199.955 25.6323 199.955Z" fill="#056AD4"/>
<path d="M21.3613 197.816C23.72 197.816 25.6322 195.904 25.6322 193.545C25.6322 191.187 23.72 189.275 21.3613 189.275C19.0026 189.275 17.0905 191.187 17.0905 193.545C17.0905 195.904 19.0026 197.816 21.3613 197.816Z" fill="#056AD4"/>
<path d="M4.32955 181.775C5.33488 182.483 6.67043 182.788 7.92526 182.971C8.98196 183.129 10.046 183.239 11.1137 183.313C10.013 182.428 9.0003 181.196 7.95094 180.032C10.5219 179.35 13.2548 179.651 15.6158 180.876C17.9767 182.102 19.7959 184.163 20.7179 186.658C21.6399 189.153 21.5984 191.902 20.6016 194.368C19.6048 196.834 17.7242 198.84 15.3274 199.994C12.9306 201.147 10.1898 201.365 7.64057 200.606C5.09139 199.846 2.91702 198.164 1.54237 195.886C0.167717 193.609 -0.308421 190.901 0.206998 188.292C0.722416 185.682 2.19235 183.359 4.32955 181.775V181.775Z" fill="#262626"/>
<path d="M20.9138 223.453H55.9683C58.4011 223.453 60.7342 224.419 62.4544 226.139C64.1746 227.859 65.141 230.193 65.141 232.625V275.301C65.141 275.713 64.9771 276.109 64.6854 276.401C64.3936 276.692 63.9979 276.856 63.5853 276.856H13.3041C13.0992 276.857 12.8961 276.818 12.7065 276.74C12.5169 276.662 12.3446 276.548 12.1993 276.403C12.0541 276.259 11.9388 276.087 11.8602 275.898C11.7816 275.708 11.7411 275.505 11.7411 275.301V232.625C11.7411 230.193 12.7075 227.859 14.4277 226.139C16.1479 224.419 18.4811 223.453 20.9138 223.453V223.453Z" fill="#056AD4"/>
<g opacity="0.1">
<path opacity="0.1" d="M54.3465 161.713C53.9172 162.179 53.4562 162.616 52.9669 163.019C53.4549 162.986 53.9466 162.942 54.4345 162.894C54.4162 162.498 54.3905 162.102 54.3465 161.713Z" fill="black"/>
<path opacity="0.1" d="M46.561 156.613C47.6287 156.539 48.6927 156.429 49.7494 156.271C50.7066 156.16 51.643 155.913 52.5306 155.538C52.0967 154.676 51.5962 153.849 51.0336 153.065C50.5031 153.393 49.9269 153.64 49.3238 153.799C48.4772 154.807 47.5535 155.748 46.561 156.613Z" fill="black"/>
<path opacity="0.1" d="M20.2901 165.782C20.2837 162.522 21.1564 159.321 22.8164 156.516C24.4763 153.711 26.8621 151.406 29.7223 149.843C32.5825 148.28 35.8113 147.518 39.0685 147.636C42.3257 147.754 45.4908 148.748 48.2303 150.514C48.322 150.419 48.4137 150.313 48.5055 150.221C46.7208 148.609 44.6334 147.367 42.3646 146.569C40.0958 145.771 37.6909 145.432 35.2899 145.572C32.8888 145.712 30.5396 146.328 28.3788 147.384C26.2181 148.44 24.2889 149.916 22.7036 151.724C21.1182 153.533 19.9084 155.639 19.1444 157.919C18.3805 160.2 18.0776 162.609 18.2535 165.008C18.4295 167.407 19.0806 169.746 20.1691 171.891C21.2576 174.036 22.7617 175.943 24.594 177.501C21.8115 174.23 20.2856 170.075 20.2901 165.782Z" fill="black"/>
</g>
<g opacity="0.1">
<path opacity="0.1" d="M61.5124 185.448C62.5789 185.379 63.6429 185.266 64.7045 185.107C65.9557 184.927 67.2729 184.622 68.2965 183.911C69.5005 184.8 70.5037 185.933 71.2408 187.236C71.9779 188.539 72.4324 189.982 72.5747 191.473C72.6114 191.106 72.6334 190.739 72.6334 190.346C72.6345 188.678 72.2435 187.034 71.4921 185.545C70.7407 184.056 69.6498 182.765 68.3075 181.775C67.3022 182.483 65.9667 182.788 64.7155 182.971C64.433 183.012 64.1541 183.045 63.8753 183.078C63.1515 183.929 62.3614 184.722 61.5124 185.448Z" fill="black"/>
<path opacity="0.1" d="M61.9343 181.801C62.2925 181.807 62.6501 181.831 63.0057 181.874C63.5634 181.28 64.1065 180.649 64.6678 180.04C63.0873 179.614 61.4298 179.558 59.8243 179.877C58.2187 180.196 56.7084 180.881 55.4108 181.879C54.1132 182.877 53.0634 184.161 52.343 185.63C51.6226 187.1 51.251 188.717 51.2572 190.354C51.2572 190.72 51.2756 191.087 51.3086 191.421C51.5716 188.786 52.8045 186.342 54.768 184.564C56.7316 182.786 59.2856 181.802 61.9343 181.801Z" fill="black"/>
</g>
<g opacity="0.1">
<path opacity="0.1" d="M11.11 185.448C10.0435 185.379 8.98071 185.266 7.92157 185.107C6.66674 184.927 5.33119 184.622 4.32586 183.911C3.12392 184.801 2.12283 185.935 1.38766 187.238C0.652493 188.54 0.199698 189.983 0.0587062 191.473C0.0220153 191.106 8.13181e-07 190.739 8.13181e-07 190.346C-0.00065125 188.678 0.390857 187.033 1.14293 185.544C1.895 184.056 2.98656 182.764 4.32953 181.775C5.33486 182.483 6.6704 182.788 7.92523 182.971C8.20408 183.012 8.48294 183.045 8.76179 183.078C9.48182 183.928 10.2669 184.72 11.11 185.448Z" fill="black"/>
<path opacity="0.1" d="M10.6809 181.801C10.3228 181.807 9.96515 181.831 9.60955 181.874C9.05184 181.28 8.50882 180.649 7.94745 180.04C9.52793 179.614 11.1854 179.558 12.791 179.877C14.3966 180.196 15.9069 180.881 17.2044 181.879C18.502 182.877 19.5518 184.161 20.2722 185.63C20.9926 187.1 21.3642 188.717 21.358 190.354C21.358 190.72 21.358 191.087 21.3066 191.421C21.0436 188.786 19.8107 186.342 17.8472 184.564C15.8837 182.786 13.3297 181.802 10.6809 181.801Z" fill="black"/>
</g>
<path d="M249.49 277.92L177.943 277.003L178.152 275.168L181.612 244.898H244.445L249.068 275.168L249.421 277.461L249.49 277.92Z" fill="#D0D2D5"/>
<path opacity="0.1" d="M249.421 277.461H213.717L177.943 277.003L178.152 275.168H249.068L249.421 277.461Z" fill="black"/>
<path d="M260.956 275.627H166.019V277.92H260.956V275.627Z" fill="#D0D2D5"/>
<path d="M351.535 63.0876C351.543 61.504 350.922 59.9821 349.808 58.8565C348.694 57.7309 347.179 57.0937 345.595 57.085H80.4633C79.6789 57.0888 78.9029 57.2471 78.1796 57.5509C77.4564 57.8546 76.8001 58.2978 76.2481 58.8552C75.6962 59.4126 75.2594 60.0733 74.9628 60.7995C74.6662 61.5257 74.5155 62.3032 74.5194 63.0876V223.794H351.535V63.0876Z" fill="#002852"/>
<path d="M75 222V240.826C74.9976 241.608 75.1496 242.383 75.4473 243.106C75.745 243.829 76.1824 244.486 76.7347 245.04C77.2869 245.593 77.943 246.032 78.6653 246.332C79.3877 246.631 80.162 246.785 80.944 246.785H346.076C347.651 246.785 349.162 246.159 350.276 245.045C351.39 243.931 352.016 242.42 352.016 240.844V222H75Z" fill="#D0D2D5"/>
<path opacity="0.5" d="M341.446 67.1748H85.985V211.645H341.446V67.1748Z" fill="#056AD4"/>
<path d="M214.404 239.82C215.342 239.821 216.268 239.608 217.112 239.199C217.956 238.79 218.696 238.194 219.276 237.457V237.457C219.451 237.232 219.612 236.995 219.757 236.749L216.359 236.191L220.028 236.217C220.382 235.451 220.575 234.62 220.595 233.776C220.615 232.933 220.463 232.094 220.146 231.311L215.218 233.88L219.764 230.541C219.347 229.792 218.779 229.138 218.096 228.621C217.412 228.103 216.629 227.733 215.795 227.534C214.962 227.334 214.096 227.311 213.252 227.464C212.409 227.617 211.607 227.943 210.896 228.423C210.185 228.902 209.582 229.524 209.124 230.248C208.666 230.973 208.364 231.785 208.237 232.632C208.109 233.48 208.159 234.345 208.383 235.172C208.607 236 209.001 236.771 209.538 237.439V237.439C210.116 238.178 210.854 238.777 211.697 239.19C212.54 239.602 213.465 239.818 214.404 239.82Z" fill="#262626"/>
<path opacity="0.1" d="M220.597 246.96L249.139 275.627L244.762 246.96H220.597Z" fill="black"/>
<path d="M290.31 86.8484H93.0962V191.568H290.31V86.8484Z" fill="white"/>
<path opacity="0.1" d="M159.102 114.147H104.095V116.998H159.102V114.147Z" fill="#262626"/>
<path opacity="0.1" d="M114.285 99.0703H108.987V114.147H114.285V99.0703Z" fill="#262626"/>
<path opacity="0.1" d="M122.027 99.0703H116.728V114.147H122.027V99.0703Z" fill="#262626"/>
<path opacity="0.1" d="M129.769 99.0703H124.471V114.147H129.769V99.0703Z" fill="#262626"/>
<path opacity="0.1" d="M137.51 99.0703H132.212V114.147H137.51V99.0703Z" fill="#262626"/>
<path opacity="0.1" d="M145.252 99.0703H139.954V114.147H145.252V99.0703Z" fill="#262626"/>
<path opacity="0.1" d="M152.994 99.0703H147.695V114.147H152.994V99.0703Z" fill="#262626"/>
<path opacity="0.1" d="M114.285 101.925H108.987V103.554H114.285V101.925Z" fill="#262626"/>
<path opacity="0.1" d="M122.027 101.925H116.728V103.554H122.027V101.925Z" fill="#262626"/>
<path opacity="0.1" d="M129.769 101.925H124.471V103.554H129.769V101.925Z" fill="#262626"/>
<path opacity="0.1" d="M137.51 101.925H132.212V103.554H137.51V101.925Z" fill="#262626"/>
<path opacity="0.1" d="M145.252 101.925H139.954V103.554H145.252V101.925Z" fill="#262626"/>
<path opacity="0.1" d="M152.994 101.925H147.695V103.554H152.994V101.925Z" fill="#262626"/>
<path opacity="0.1" d="M114.285 109.259H108.987V110.888H114.285V109.259Z" fill="#262626"/>
<path opacity="0.1" d="M122.027 109.259H116.728V110.888H122.027V109.259Z" fill="#262626"/>
<path opacity="0.1" d="M129.769 109.259H124.471V110.888H129.769V109.259Z" fill="#262626"/>
<path opacity="0.1" d="M137.51 109.259H132.212V110.888H137.51V109.259Z" fill="#262626"/>
<path opacity="0.1" d="M145.252 109.259H139.954V110.888H145.252V109.259Z" fill="#262626"/>
<path opacity="0.1" d="M152.994 109.259H147.695V110.888H152.994V109.259Z" fill="#262626"/>
<path opacity="0.1" d="M279.713 121.481H224.706V124.332H279.713V121.481Z" fill="#262626"/>
<path opacity="0.1" d="M234.895 106.405H229.597V121.481H234.895V106.405Z" fill="#262626"/>
<path opacity="0.1" d="M242.637 106.405H237.339V121.481H242.637V106.405Z" fill="#262626"/>
<path opacity="0.1" d="M250.378 106.405H245.08V121.481H250.378V106.405Z" fill="#262626"/>
<path opacity="0.1" d="M258.12 106.405H252.823V121.481H258.12V106.405Z" fill="#262626"/>
<path opacity="0.1" d="M265.862 106.405H260.564V121.481H265.862V106.405Z" fill="#262626"/>
<path opacity="0.1" d="M273.604 106.405H268.306V121.481H273.604V106.405Z" fill="#262626"/>
<path opacity="0.1" d="M234.895 109.259H229.597V110.888H234.895V109.259Z" fill="#262626"/>
<path opacity="0.1" d="M242.637 109.259H237.339V110.888H242.637V109.259Z" fill="#262626"/>
<path opacity="0.1" d="M250.378 109.259H245.08V110.888H250.378V109.259Z" fill="#262626"/>
<path opacity="0.1" d="M258.12 109.259H252.823V110.888H258.12V109.259Z" fill="#262626"/>
<path opacity="0.1" d="M265.862 109.259H260.564V110.888H265.862V109.259Z" fill="#262626"/>
<path opacity="0.1" d="M273.604 109.259H268.306V110.888H273.604V109.259Z" fill="#262626"/>
<path opacity="0.1" d="M234.895 116.594H229.597V118.223H234.895V116.594Z" fill="#262626"/>
<path opacity="0.1" d="M242.637 116.594H237.339V118.223H242.637V116.594Z" fill="#262626"/>
<path opacity="0.1" d="M250.378 116.594H245.08V118.223H250.378V116.594Z" fill="#262626"/>
<path opacity="0.1" d="M258.12 116.594H252.823V118.223H258.12V116.594Z" fill="#262626"/>
<path opacity="0.1" d="M265.862 116.594H260.564V118.223H265.862V116.594Z" fill="#262626"/>
<path opacity="0.1" d="M273.604 116.594H268.306V118.223H273.604V116.594Z" fill="#262626"/>
<path opacity="0.1" d="M279.713 142.263H224.706V145.114H279.713V142.263Z" fill="#262626"/>
<path opacity="0.1" d="M234.895 127.187H229.597V142.263H234.895V127.187Z" fill="#262626"/>
<path opacity="0.1" d="M242.637 127.187H237.339V142.263H242.637V127.187Z" fill="#262626"/>
<path opacity="0.1" d="M250.378 127.187H245.08V142.263H250.378V127.187Z" fill="#262626"/>
<path opacity="0.1" d="M258.12 127.187H252.823V142.263H258.12V127.187Z" fill="#262626"/>
<path opacity="0.1" d="M265.862 127.187H260.564V142.263H265.862V127.187Z" fill="#262626"/>
<path opacity="0.1" d="M273.604 127.187H268.306V142.263H273.604V127.187Z" fill="#262626"/>
<path opacity="0.1" d="M234.895 130.037H229.597V131.666H234.895V130.037Z" fill="#262626"/>
<path opacity="0.1" d="M242.637 130.037H237.339V131.666H242.637V130.037Z" fill="#262626"/>
<path opacity="0.1" d="M250.378 130.037H245.08V131.666H250.378V130.037Z" fill="#262626"/>
<path opacity="0.1" d="M258.12 130.037H252.823V131.666H258.12V130.037Z" fill="#262626"/>
<path opacity="0.1" d="M265.862 130.037H260.564V131.666H265.862V130.037Z" fill="#262626"/>
<path opacity="0.1" d="M273.604 130.037H268.306V131.666H273.604V130.037Z" fill="#262626"/>
<path opacity="0.1" d="M234.895 137.372H229.597V139.001H234.895V137.372Z" fill="#262626"/>
<path opacity="0.1" d="M242.637 137.372H237.339V139.001H242.637V137.372Z" fill="#262626"/>
<path opacity="0.1" d="M250.378 137.372H245.08V139.001H250.378V137.372Z" fill="#262626"/>
<path opacity="0.1" d="M258.12 137.372H252.823V139.001H258.12V137.372Z" fill="#262626"/>
<path opacity="0.1" d="M265.862 137.372H260.564V139.001H265.862V137.372Z" fill="#262626"/>
<path opacity="0.1" d="M273.604 137.372H268.306V139.001H273.604V137.372Z" fill="#262626"/>
<path opacity="0.1" d="M137.833 146.39C137.421 145.866 137.046 145.315 136.71 144.739L144.632 143.44L136.05 143.51C135.228 141.722 134.78 139.786 134.733 137.818C134.686 135.851 135.04 133.895 135.774 132.07L147.266 138.032L136.67 130.243C137.66 128.523 138.994 127.026 140.588 125.845C142.183 124.663 144.004 123.824 145.937 123.378C147.871 122.932 149.876 122.889 151.827 123.253C153.777 123.616 155.632 124.378 157.276 125.49C158.919 126.602 160.315 128.042 161.377 129.718C162.44 131.394 163.145 133.271 163.449 135.232C163.754 137.193 163.651 139.195 163.146 141.115C162.642 143.034 161.748 144.829 160.519 146.387C161.163 147.2 161.718 148.081 162.174 149.014L151.9 154.352L162.86 150.683C163.63 152.958 163.821 155.388 163.415 157.755C163.009 160.122 162.018 162.35 160.534 164.237C162.209 166.366 163.252 168.925 163.542 171.619C163.832 174.313 163.358 177.034 162.174 179.472C160.991 181.909 159.145 183.964 156.848 185.402C154.552 186.84 151.897 187.603 149.187 187.603C146.477 187.603 143.822 186.84 141.525 185.402C139.229 183.964 137.383 181.909 136.199 179.472C135.016 177.034 134.542 174.313 134.832 171.619C135.122 168.925 136.165 166.366 137.84 164.237C135.839 161.692 134.751 158.549 134.751 155.312C134.751 152.075 135.839 148.931 137.84 146.387L137.833 146.39Z" fill="#262626"/>
<path opacity="0.1" d="M163.615 155.317C163.62 158.554 162.531 161.699 160.526 164.24C162.201 166.37 163.244 168.928 163.534 171.622C163.824 174.316 163.35 177.037 162.167 179.475C160.983 181.912 159.137 183.968 156.841 185.406C154.544 186.843 151.889 187.606 149.179 187.606C146.47 187.606 143.815 186.843 141.518 185.406C139.221 183.968 137.376 181.912 136.192 179.475C135.008 177.037 134.534 174.316 134.825 171.622C135.115 168.928 136.157 166.37 137.833 164.24C135.899 161.786 163.615 153.695 163.615 155.317Z" fill="#262626"/>
<path opacity="0.2" d="M151.496 191.447C151.522 191.487 151.54 191.528 151.566 191.568H146.664C146.69 191.528 146.708 191.487 146.734 191.447C146.313 190.713 146.095 189.879 146.103 189.033C146.102 188.454 146.203 187.879 146.4 187.334C146.4 187.334 146.4 187.334 146.4 187.334C146.671 187.378 147.009 187.426 147.398 187.466C148.535 187.58 149.68 187.58 150.817 187.466C151.14 187.433 151.482 187.385 151.826 187.334C151.827 187.343 151.827 187.351 151.826 187.36C152.02 187.896 152.118 188.462 152.116 189.033C152.127 189.878 151.913 190.711 151.496 191.447V191.447Z" fill="#056AD4"/>
<path opacity="0.1" d="M133.882 191.575H106.62C106.558 191.418 106.503 191.253 106.455 191.091C105.494 187.999 105.606 184.674 106.774 181.654C104.11 179.814 102.142 177.131 101.186 174.038C100.231 170.944 100.343 167.619 101.506 164.597C100.957 164.216 100.435 163.799 99.9425 163.349L107.127 159.768L98.9628 162.358C97.649 160.893 96.6485 159.174 96.0226 157.308C95.3968 155.441 95.1587 153.467 95.3231 151.505L108.062 153.806L95.6386 149.491C96.0778 147.556 96.9112 145.732 98.0869 144.133C99.2625 142.534 100.755 141.195 102.471 140.199C104.188 139.203 106.091 138.571 108.062 138.344C110.034 138.116 112.031 138.297 113.929 138.876C115.827 139.455 117.586 140.418 119.095 141.707C120.604 142.996 121.831 144.582 122.7 146.366C123.568 148.15 124.06 150.094 124.143 152.077C124.227 154.06 123.901 156.038 123.186 157.889C124.04 158.481 124.828 159.161 125.538 159.918L117.29 168.056L126.679 161.305C128.086 163.252 128.986 165.519 129.296 167.901C129.606 170.283 129.317 172.705 128.455 174.947C131.054 176.744 132.992 179.343 133.972 182.346C134.952 185.35 134.92 188.592 133.882 191.575V191.575Z" fill="#262626"/>
<path opacity="0.1" d="M133.881 191.575H106.62C106.558 191.418 106.503 191.252 106.455 191.091C105.494 187.999 105.606 184.674 106.774 181.654C104.206 179.875 128.297 163.965 128.789 165.51C129.746 168.603 129.634 171.929 128.469 174.951C131.065 176.749 133 179.348 133.977 182.351C134.954 185.354 134.921 188.594 133.881 191.575V191.575Z" fill="#262626"/>
<path opacity="0.1" d="M257.328 172.015C255.672 174.797 253.125 176.938 250.1 178.091C250.229 179.122 250.25 180.164 250.162 181.199L238.597 180.506L249.891 182.975C249.144 186.426 247.162 189.484 244.318 191.575H228.577V191.983H212.554C212.587 191.843 212.62 191.707 212.657 191.575C213.246 189.362 214.351 187.32 215.882 185.617C217.412 183.913 219.325 182.597 221.463 181.775C221.053 178.563 221.735 175.306 223.399 172.527C225.062 169.749 227.611 167.61 230.635 166.453C230.549 165.793 230.509 165.127 230.514 164.461L237.981 167.396L230.599 163.059C230.81 161.105 231.417 159.214 232.382 157.502C233.348 155.79 234.653 154.293 236.216 153.101L243.019 164.109L237.922 152.001C240.699 150.456 243.907 149.871 247.05 150.336C250.193 150.801 253.094 152.289 255.305 154.571C257.516 156.853 258.912 159.8 259.277 162.956C259.642 166.112 258.956 169.3 257.324 172.026L257.328 172.015Z" fill="#262626"/>
<path opacity="0.1" d="M248.166 187.338C247.184 188.996 245.874 190.438 244.317 191.575H228.577V191.983H212.554C212.587 191.843 212.62 191.707 212.657 191.575C213.246 189.362 214.351 187.32 215.882 185.616C217.412 183.913 219.325 182.597 221.463 181.775C221.327 180.722 224.438 180.865 228.581 181.562C236.678 182.92 248.717 186.417 248.166 187.338Z" fill="#262626"/>
<path d="M179.95 148.816C179.95 148.816 181.913 159.518 177.51 163.008C173.107 166.497 181.231 187.437 194.725 184.997C208.22 182.557 213.687 164.985 213.687 164.985C213.687 164.985 200.192 162.197 205.193 148.005L179.95 148.816Z" fill="#EFB7B9"/>
<path opacity="0.1" d="M179.95 148.816C179.95 148.816 181.913 159.518 177.51 163.008C173.107 166.497 181.231 187.437 194.725 184.997C208.22 182.557 213.687 164.985 213.687 164.985C213.687 164.985 200.192 162.197 205.193 148.005L179.95 148.816Z" fill="black"/>
<path d="M191.875 156.668C204.21 156.668 214.209 146.668 214.209 134.334C214.209 121.999 204.21 112 191.875 112C179.541 112 169.542 121.999 169.542 134.334C169.542 146.668 179.541 156.668 191.875 156.668Z" fill="#EFB7B9"/>
<path d="M228.577 176.793V191.975H154.828V177.486C154.829 175.648 155.371 173.851 156.386 172.319C157.401 170.787 158.845 169.588 160.537 168.871L162.654 167.972C168.004 165.694 174.502 162.865 176.626 161.687C176.859 161.571 177.078 161.43 177.279 161.265C178.442 160.102 178.211 161.614 178.211 161.614C178.211 161.614 178.178 161.9 178.156 162.399C178.031 165.815 178.523 179.251 194.264 178.132C209.622 177.031 210.297 166.67 210.158 163.621C210.149 163.338 210.125 163.057 210.085 162.777C210.085 162.696 211.406 163.144 213.196 163.79C216.414 164.975 221.143 166.883 222.417 167.782C222.813 168.057 223.293 168.35 223.814 168.64C225.265 169.45 226.472 170.633 227.311 172.066C228.15 173.5 228.589 175.132 228.584 176.793H228.577Z" fill="#262626"/>
<path opacity="0.1" d="M213.192 163.789C211.893 169.814 207.813 181.1 193.096 181.401C177.426 181.709 176.523 166.123 176.619 161.701C176.853 161.585 177.074 161.442 177.275 161.276C178.439 160.113 178.207 161.624 178.207 161.624C178.207 161.624 176.23 179.423 194.26 178.135C212.289 176.847 210.081 162.78 210.081 162.78C210.081 162.696 211.401 163.129 213.192 163.789Z" fill="black"/>
<path d="M165.439 135.438C166.907 134.961 168.657 135.768 169.475 136.906C170.294 138.043 170.407 139.419 170.506 140.736C171.479 140.942 172.025 139.841 172.113 139.016C172.48 135.636 172.499 132.195 173.632 128.937C174.766 125.678 177.243 122.523 181.051 121.268C182.347 120.819 183.731 120.687 185.087 120.883C185.891 121.019 186.65 121.298 187.454 121.43C190.231 121.888 193.258 120.571 195.867 121.488C197.5 122.064 198.553 123.396 199.301 124.732C199.635 125.449 200.086 126.105 200.637 126.673C201.738 127.663 203.484 127.924 205.069 128.236C206.654 128.548 208.393 129.083 209.072 130.309C209.685 131.41 209.234 132.694 209.028 133.897C208.714 135.793 209.033 137.74 209.934 139.438C210.228 139.995 210.822 140.626 211.523 140.447C211.842 140.339 212.112 140.12 212.283 139.83C214.117 137.262 214.059 133.93 216.344 131.637C217.111 130.87 218.098 130.268 218.843 129.487C219.407 128.918 219.82 128.217 220.046 127.449C220.272 126.68 220.304 125.868 220.138 125.084C219.727 123.319 218.304 121.848 217.177 120.314C215.697 118.349 214.618 116.111 214.003 113.728C213.895 113.452 213.895 113.146 214.003 112.87C214.219 112.589 214.497 112.362 214.814 112.206C215.437 111.793 215.887 111.167 216.081 110.445C216.275 109.724 216.199 108.956 215.867 108.287C215.229 106.955 213.794 105.968 212.22 105.374C210.646 104.779 208.918 104.526 207.208 104.273C206.086 104.438 204.768 103.796 204.42 102.897C204.266 102.497 204.266 102.064 204.108 101.664C203.803 100.897 202.927 100.354 201.984 100.167C201.024 100.01 200.042 100.079 199.114 100.369C198.058 100.666 196.832 101.103 195.911 100.597C195.427 100.321 195.155 99.8224 194.634 99.5986C193.578 99.1473 192.462 100.057 191.699 100.809C190.959 101.593 190.052 102.201 189.046 102.589C187.986 102.956 186.68 102.956 185.766 102.372C185.032 101.906 184.665 101.158 184.082 100.564C183.124 99.5839 181.609 99.0519 180.097 98.9308C178.581 98.8511 177.062 99.0171 175.599 99.4224C172.806 100.099 170.137 101.214 167.692 102.725C166.47 103.491 165.3 104.387 164.662 105.542C164.208 106.444 163.974 107.439 163.979 108.448C163.865 111.607 164.915 114.939 167.648 117.151C165.982 117.849 165.417 119.555 165.028 121.07C164.405 123.484 163.777 125.943 164.012 128.408C164.13 129.681 164.478 130.955 164.291 132.22C164.203 132.833 163.99 133.435 164.042 134.055C164.11 134.399 164.279 134.714 164.528 134.961C164.778 135.208 165.095 135.374 165.439 135.438V135.438Z" fill="#454B69"/>
<g opacity="0.1">
<path opacity="0.1" d="M219.815 124.13C219.573 124.653 219.247 125.133 218.85 125.55C218.116 126.332 217.118 126.933 216.351 127.704C214.066 129.993 214.113 133.336 212.29 135.897C212.119 136.186 211.849 136.404 211.53 136.51C210.829 136.689 210.235 136.058 209.942 135.501C209.585 134.822 209.317 134.101 209.145 133.354C209.106 133.54 209.07 133.727 209.035 133.916C208.722 135.812 209.04 137.759 209.942 139.456C210.235 140.014 210.829 140.645 211.53 140.465C211.849 140.357 212.119 140.139 212.29 139.849C214.124 137.28 214.066 133.949 216.351 131.655C217.118 130.889 218.105 130.287 218.85 129.505C219.414 128.936 219.827 128.236 220.053 127.467C220.279 126.699 220.311 125.886 220.145 125.102C220.067 124.768 219.956 124.443 219.815 124.13Z" fill="black"/>
<path opacity="0.1" d="M214.829 108.287C214.51 108.44 214.232 108.667 214.018 108.947C213.909 109.223 213.909 109.53 214.018 109.806C214.229 110.638 214.5 111.453 214.829 112.246C215.459 111.829 215.913 111.195 216.105 110.465C216.296 109.734 216.212 108.959 215.867 108.287C215.764 108.068 215.641 107.86 215.5 107.663C215.309 107.904 215.082 108.114 214.829 108.287Z" fill="black"/>
<path opacity="0.1" d="M167.644 113.233C165.752 111.668 164.504 109.46 164.14 107.032C164.045 107.516 163.991 108.007 163.979 108.5C163.861 110.831 164.477 113.141 165.74 115.104C166.124 114.268 166.801 113.602 167.644 113.233Z" fill="black"/>
<path opacity="0.1" d="M209.035 129.96C209.241 128.757 209.692 127.476 209.079 126.372C208.4 125.146 206.665 124.607 205.076 124.299C203.488 123.99 201.752 123.726 200.644 122.736C200.094 122.168 199.642 121.512 199.308 120.795C198.575 119.459 197.507 118.127 195.874 117.551C193.265 116.634 190.238 117.951 187.461 117.492C186.657 117.36 185.898 117.082 185.094 116.946C183.739 116.744 182.355 116.87 181.058 117.313C177.25 118.568 174.773 121.716 173.64 124.981C172.506 128.247 172.48 131.681 172.12 135.06C172.032 135.886 171.486 136.986 170.513 136.781C170.414 135.464 170.293 134.088 169.482 132.95C168.672 131.813 166.94 131.002 165.446 131.483C164.994 131.381 164.594 131.12 164.316 130.749C164.367 131.237 164.36 131.73 164.294 132.217C164.206 132.829 163.993 133.431 164.045 134.051C164.112 134.395 164.281 134.711 164.529 134.958C164.778 135.206 165.095 135.373 165.439 135.438C166.907 134.961 168.657 135.768 169.475 136.906C170.293 138.043 170.407 139.419 170.506 140.736C171.478 140.942 172.025 139.841 172.113 139.015C172.48 135.636 172.498 132.195 173.632 128.936C174.766 125.678 177.243 122.523 181.051 121.268C182.346 120.819 183.73 120.686 185.087 120.883C185.891 121.018 186.65 121.297 187.454 121.429C190.231 121.888 193.258 120.571 195.867 121.488C197.5 122.064 198.553 123.396 199.301 124.732C199.635 125.449 200.086 126.105 200.637 126.673C201.737 127.663 203.484 127.924 205.069 128.236C206.654 128.547 208.265 129.046 208.991 130.184C209.01 130.121 209.021 130.041 209.035 129.96Z" fill="black"/>
<path opacity="0.1" d="M164.301 128.294C164.387 127.298 164.328 126.294 164.125 125.315C163.968 126.348 163.934 127.396 164.022 128.437C164.044 128.705 164.081 128.969 164.118 129.237C164.162 128.922 164.242 128.61 164.301 128.294Z" fill="black"/>
</g>
<path d="M333.421 168.783H300.399V191.697H333.421V168.783Z" fill="white"/>
<path opacity="0.1" d="M330.479 186.072C330.008 186.864 329.282 187.473 328.42 187.8C328.458 188.093 328.464 188.39 328.439 188.684L325.136 188.486L328.351 189.191C328.136 190.171 327.573 191.039 326.765 191.634H322.297V191.752H317.74C317.74 191.711 317.74 191.675 317.769 191.634C317.867 191.261 318.017 190.904 318.217 190.574C318.687 189.783 319.411 189.174 320.271 188.846C320.154 187.932 320.347 187.005 320.821 186.214C321.294 185.424 322.019 184.815 322.88 184.487C322.854 184.3 322.843 184.111 322.847 183.922L324.971 184.758L322.869 183.526C322.928 182.968 323.101 182.429 323.377 181.942C323.653 181.454 324.026 181.028 324.472 180.689L326.406 183.823L324.957 180.374C325.746 179.944 326.655 179.785 327.544 179.921C328.433 180.058 329.252 180.482 329.877 181.128C330.502 181.775 330.897 182.609 331.002 183.502C331.108 184.395 330.917 185.298 330.46 186.072H330.479Z" fill="#262626"/>
<path opacity="0.1" d="M327.87 190.442C327.589 190.913 327.214 191.323 326.769 191.645H322.297V191.762H317.74C317.74 191.722 317.74 191.685 317.769 191.645C317.867 191.272 318.017 190.915 318.217 190.585C318.687 189.794 319.411 189.185 320.271 188.857C320.235 188.559 321.119 188.6 322.297 188.798C324.601 189.187 328.028 190.181 327.87 190.442Z" fill="#262626"/>
<path opacity="0.1" d="M301.654 186.072C302.125 186.864 302.851 187.473 303.712 187.8C303.675 188.093 303.669 188.39 303.694 188.684L306.996 188.486L303.782 189.191C303.996 190.171 304.56 191.039 305.367 191.634H309.847V191.752H314.408C314.408 191.711 314.386 191.675 314.378 191.634C314.277 191.262 314.127 190.906 313.931 190.574C313.458 189.783 312.733 189.175 311.872 188.846C311.99 187.932 311.796 187.005 311.323 186.214C310.85 185.424 310.124 184.815 309.264 184.487C309.289 184.3 309.301 184.111 309.3 183.922L307.176 184.758L309.275 183.526C309.215 182.968 309.042 182.429 308.767 181.942C308.491 181.454 308.118 181.028 307.671 180.689L305.738 183.823L307.187 180.374C306.397 179.944 305.488 179.785 304.599 179.921C303.711 180.058 302.891 180.482 302.266 181.128C301.642 181.775 301.246 182.609 301.141 183.502C301.036 184.395 301.226 185.298 301.683 186.072H301.654Z" fill="#262626"/>
<path opacity="0.1" d="M304.263 190.442C304.544 190.913 304.918 191.323 305.363 191.645H309.843V191.762H314.404C314.404 191.722 314.382 191.685 314.375 191.645C314.274 191.273 314.123 190.916 313.927 190.585C313.454 189.794 312.729 189.186 311.869 188.857C311.905 188.559 311.021 188.6 309.843 188.798C307.532 189.187 304.094 190.181 304.263 190.442Z" fill="#262626"/>
<path d="M320.172 173.832H312.794V182.05H320.172V173.832Z" fill="#464353"/>
<path opacity="0.1" d="M320.172 173.832H312.794V182.05H320.172V173.832Z" fill="black"/>
<path d="M309.649 189.572L309.499 191.708H311.605L311.737 188.886L309.649 189.572Z" fill="#A1616A"/>
<path d="M320.745 189.572L320.425 191.708H322.355L322.476 188.886L320.745 189.572Z" fill="#A1616A"/>
<path d="M314.635 177.945C314.635 177.945 314.562 179.012 314.305 179.291C314.048 179.57 316.598 182.039 318.605 179.599C318.605 179.599 317.743 178.866 317.945 178.044C318.146 177.222 314.635 177.945 314.635 177.945Z" fill="#A1616A"/>
<path opacity="0.1" d="M314.635 177.945C314.635 177.945 314.562 179.012 314.305 179.291C314.048 179.57 316.598 182.039 318.605 179.599C318.605 179.599 317.743 178.866 317.945 178.044C318.146 177.222 314.635 177.945 314.635 177.945Z" fill="black"/>
<path d="M316.481 178.899C318.52 178.899 320.172 177.246 320.172 175.207C320.172 173.169 318.52 171.516 316.481 171.516C314.442 171.516 312.79 173.169 312.79 175.207C312.79 177.246 314.442 178.899 316.481 178.899Z" fill="#A1616A"/>
<path d="M316.291 180.234C316.291 180.234 314.742 180.208 314.511 178.796C314.204 179.061 313.881 179.306 313.542 179.53C313.392 179.581 311.913 180.418 311.634 180.469C311.362 180.524 311.109 180.651 310.901 180.836C310.536 181.122 310.238 181.485 310.027 181.898C309.816 182.311 309.697 182.765 309.679 183.228C309.627 184.883 309.426 188.115 309.426 188.115L309.503 189.286V190.049C309.503 190.049 310.875 190.416 311.704 189.682C311.704 189.682 311.704 189.403 311.858 189.315C312.012 189.227 312.034 188.857 312.009 188.702C311.996 188.474 311.996 188.245 312.009 188.016C312.035 188.141 312.109 188.25 312.214 188.321C312.275 188.528 312.293 188.745 312.266 188.959C312.189 189.11 312.111 189.466 312.189 189.543C312.227 189.611 312.243 189.69 312.234 189.768C312.225 189.846 312.191 189.918 312.137 189.976C311.997 190.172 311.886 190.387 311.807 190.614C311.807 190.614 311.73 191.069 311.653 191.12C311.566 191.307 311.507 191.504 311.477 191.707H320.649C320.488 191.243 320.365 190.765 320.283 190.28C320.308 190.053 320.055 189.11 320.231 188.857C320.49 188.521 320.633 188.11 320.638 187.686L320.741 188.677L320.462 190.878C320.462 190.878 322.165 191.414 322.345 191.08C322.535 190.499 322.68 189.904 322.778 189.301C322.778 189.301 323.185 187.466 323.288 187.213C323.39 186.96 323.618 181.871 322.242 181.133C320.866 180.396 318.272 179.126 318.206 179.188C318.059 179.559 317.787 179.867 317.437 180.058C317.087 180.249 316.682 180.311 316.291 180.234V180.234Z" fill="#262626"/>
<path opacity="0.1" d="M311.869 185.209C311.607 185.584 311.494 186.044 311.553 186.497C311.615 186.947 311.762 187.38 311.986 187.774" stroke="black" stroke-miterlimit="10"/>
<path opacity="0.1" d="M320.782 185.558C320.847 185.744 320.899 185.936 320.936 186.13C321.002 186.373 321.014 186.628 320.972 186.876C320.931 187.124 320.835 187.361 320.694 187.569" stroke="black" stroke-miterlimit="10"/>
<path d="M314.83 172.683C315.119 172.606 315.425 172.637 315.692 172.771C315.955 172.906 316.23 173.016 316.514 173.098C316.705 173.138 316.881 173.138 317.094 173.167C317.448 173.232 317.775 173.401 318.033 173.652C318.291 173.904 318.467 174.227 318.54 174.58C318.705 175.482 318.173 176.37 318.173 177.291C318.175 177.818 318.36 178.328 318.697 178.733C318.98 178.991 319.227 179.286 319.431 179.61C319.538 179.845 319.56 180.113 319.662 180.344C319.887 180.76 320.259 181.076 320.704 181.232C321.147 181.38 321.573 181.572 321.978 181.804C322.711 182.292 323.144 183.228 323.996 183.43C324.038 183.448 324.083 183.457 324.13 183.457C324.176 183.457 324.221 183.448 324.263 183.43C324.302 183.399 324.333 183.36 324.355 183.315C324.377 183.271 324.388 183.222 324.388 183.173C324.409 182.993 324.39 182.811 324.331 182.64C324.272 182.469 324.175 182.314 324.047 182.186C323.838 181.977 323.533 181.819 323.467 181.536C323.401 181.254 323.577 181.012 323.673 180.755C323.977 179.922 323.471 179.016 322.895 178.341C322.319 177.666 321.629 176.998 321.49 176.139C321.457 175.849 321.446 175.557 321.457 175.266C321.446 174.665 321.342 174.07 321.148 173.501C321.055 173.194 320.906 172.906 320.708 172.654C320.525 172.433 320.29 172.265 320.099 172.052C319.846 171.702 319.618 171.334 319.417 170.951C319.125 170.498 318.727 170.122 318.257 169.858C317.787 169.594 317.259 169.449 316.72 169.436C315.689 169.436 314.713 169.891 313.84 170.437C313.518 170.613 313.24 170.857 313.025 171.153C312.658 171.736 312.768 172.507 312.555 173.167C312.343 173.828 311.84 174.316 311.664 174.961C311.61 175.151 311.601 175.351 311.638 175.545C311.704 175.749 311.791 175.946 311.899 176.132C312.094 176.604 312.204 177.107 312.225 177.618C312.28 178.234 312.306 178.898 311.983 179.423C311.732 179.741 311.42 180.006 311.066 180.201C311.426 180.493 311.885 180.634 312.346 180.593C313.043 180.623 313.851 180.593 314.284 180.043C314.543 179.648 314.647 179.171 314.577 178.704C314.543 178.193 314.439 177.69 314.269 177.207C314.03 176.528 313.663 175.886 313.557 175.174C313.515 174.918 313.526 174.655 313.589 174.403C313.653 174.15 313.766 173.914 313.924 173.707C314.056 173.541 314.291 173.457 314.401 173.281C314.54 173.046 314.5 172.8 314.83 172.683Z" fill="#464353"/>
<g opacity="0.1">
<path opacity="0.1" d="M311.899 176.084C312.093 176.557 312.204 177.06 312.225 177.57C312.225 177.732 312.251 177.897 312.254 178.062C312.293 177.703 312.293 177.342 312.254 176.983C312.232 176.479 312.121 175.982 311.928 175.516C311.822 175.33 311.735 175.135 311.667 174.932C311.613 175.121 311.604 175.319 311.642 175.512C311.707 175.711 311.793 175.903 311.899 176.084Z" fill="black"/>
<path opacity="0.1" d="M314.316 179.467C313.883 180.014 313.076 180.047 312.379 180.021C312.084 180.022 311.791 179.978 311.509 179.889C311.37 180.003 311.219 180.109 311.073 180.212C311.432 180.504 311.892 180.645 312.353 180.605C313.05 180.634 313.858 180.605 314.29 180.054C314.539 179.687 314.645 179.243 314.591 178.803C314.559 179.044 314.464 179.273 314.316 179.467Z" fill="black"/>
<path opacity="0.1" d="M323.493 180.935C323.503 180.977 323.518 181.018 323.537 181.056C323.581 180.954 323.632 180.847 323.673 180.741C323.761 180.499 323.786 180.239 323.746 179.985C323.734 180.043 323.718 180.101 323.698 180.157C323.603 180.414 323.431 180.671 323.493 180.935Z" fill="black"/>
<path opacity="0.1" d="M318.561 174.756C318.603 174.505 318.603 174.248 318.561 173.997C318.489 173.644 318.313 173.32 318.055 173.069C317.798 172.817 317.47 172.648 317.116 172.584C316.921 172.551 316.727 172.551 316.536 172.514C316.253 172.431 315.977 172.322 315.714 172.188C315.448 172.053 315.141 172.02 314.852 172.096C314.522 172.214 314.562 172.463 314.415 172.705C314.309 172.881 314.07 172.969 313.938 173.131C313.647 173.519 313.516 174.003 313.571 174.485C313.617 174.204 313.735 173.94 313.913 173.718C314.045 173.553 314.279 173.468 314.39 173.292C314.536 173.046 314.496 172.801 314.826 172.683C315.115 172.606 315.421 172.638 315.688 172.771C315.951 172.907 316.226 173.016 316.51 173.098C316.701 173.138 316.877 173.138 317.09 173.168C317.444 173.232 317.771 173.401 318.029 173.653C318.287 173.904 318.463 174.227 318.536 174.58C318.548 174.638 318.556 174.697 318.561 174.756Z" fill="black"/>
<path opacity="0.1" d="M324.274 182.832C324.188 182.865 324.092 182.865 324.006 182.832C323.155 182.63 322.714 181.694 321.988 181.206C321.582 180.977 321.156 180.786 320.715 180.634C320.269 180.48 319.897 180.164 319.673 179.75C319.57 179.511 319.548 179.247 319.441 179.016C319.237 178.692 318.99 178.397 318.708 178.139C318.402 177.775 318.217 177.325 318.179 176.851C318.157 176.993 318.146 177.137 318.146 177.28C318.153 177.814 318.348 178.329 318.697 178.733C318.98 178.991 319.226 179.286 319.43 179.61C319.537 179.845 319.559 180.113 319.662 180.344C319.886 180.76 320.258 181.076 320.704 181.232C321.146 181.381 321.572 181.572 321.977 181.804C322.711 182.292 323.144 183.228 323.995 183.43C324.037 183.448 324.083 183.457 324.129 183.457C324.175 183.457 324.22 183.448 324.263 183.43C324.301 183.399 324.332 183.36 324.354 183.315C324.375 183.271 324.387 183.222 324.387 183.173C324.404 183.034 324.397 182.894 324.365 182.758C324.342 182.79 324.31 182.816 324.274 182.832Z" fill="black"/>
</g>
<path opacity="0.1" d="M308.486 170.467H303.768V177.207H308.486V170.467Z" fill="#262626"/>
<path opacity="0.1" d="M307.811 171.432H304.443V176.246H307.811V171.432Z" fill="#262626"/>
<path opacity="0.1" d="M331.733 171.479H323.984V175.523H331.733V171.479Z" fill="#262626"/>
<path opacity="0.1" d="M330.724 172.008H324.997V174.998H330.724V172.008Z" fill="#262626"/>
</g>
<defs>
<clipPath id="clip0">
<rect width="424" height="255.959" fill="white" transform="translate(0 22.5)"/>
</clipPath>
</defs>
</svg>
