<svg width="424" height="345" viewBox="0 0 424 345" fill="none" xmlns="http://www.w3.org/2000/svg">
<g clip-path="url(#clip0)">
<path d="M218.399 51.1661C220.915 67.7509 213.932 82.5677 213.932 82.5677C213.932 82.5677 202.852 70.4976 200.336 53.9091C197.82 37.3206 204.802 22.5074 204.802 22.5074C204.802 22.5074 215.883 34.5738 218.399 51.1661Z" fill="#056AD4"/>
<path d="M265.183 77.5916C274.313 77.4911 281.768 82.3891 281.768 82.3891C281.768 82.3891 274.421 87.4472 265.291 87.544C256.161 87.6407 248.706 82.7464 248.706 82.7464C248.706 82.7464 256.053 77.6921 265.183 77.5916Z" fill="#056AD4"/>
<path d="M239.509 52.3794C231.012 61.7176 229.214 73.9217 229.214 73.9217C229.214 73.9217 241.191 70.9814 249.685 61.6395C258.178 52.2975 259.983 40.1008 259.983 40.1008C259.983 40.1008 248.006 43.0411 239.509 52.3794Z" fill="#46455B"/>
<path opacity="0.1" d="M211.561 322.5C316.805 322.5 402.123 318.584 402.123 313.754C402.123 308.923 316.805 305.007 211.561 305.007C106.317 305.007 21 308.923 21 313.754C21 318.584 106.317 322.5 211.561 322.5Z" fill="#056AD4"/>
<path d="M98.5272 225.619H154.594V311.07H93.9492V225.619H98.5272Z" fill="#EEEFF0"/>
<path d="M146.934 237.871H101.605V247.671H146.934V237.871Z" fill="#056AD4"/>
<path d="M142.955 259.771H105.588V260.385H142.955V259.771Z" fill="#373E46"/>
<path d="M142.955 263.139H105.588V263.754H142.955V263.139Z" fill="#373E46"/>
<path d="M142.955 266.508H105.588V267.122H142.955V266.508Z" fill="#373E46"/>
<path d="M142.955 269.876H105.588V270.49H142.955V269.876Z" fill="#373E46"/>
<path d="M142.955 273.244H105.588V273.858H142.955V273.244Z" fill="#373E46"/>
<path d="M142.955 276.616H105.588V277.231H142.955V276.616Z" fill="#373E46"/>
<path d="M142.955 279.985H105.588V280.599H142.955V279.985Z" fill="#373E46"/>
<path d="M142.955 283.353H105.588V283.967H142.955V283.353Z" fill="#373E46"/>
<path d="M142.955 286.721H105.588V287.336H142.955V286.721Z" fill="#373E46"/>
<path d="M142.955 290.09H105.588V290.704H142.955V290.09Z" fill="#373E46"/>
<path d="M142.955 293.462H105.588V294.076H142.955V293.462Z" fill="#373E46"/>
<path d="M185.817 225.619H241.884V311.07H181.239V225.619H185.817Z" fill="#EEEFF0"/>
<path d="M234.224 237.871H188.895V247.671H234.224V237.871Z" fill="#056AD4"/>
<path d="M230.245 259.771H192.877V260.385H230.245V259.771Z" fill="#373E46"/>
<path d="M230.245 263.139H192.877V263.754H230.245V263.139Z" fill="#373E46"/>
<path d="M230.245 266.508H192.877V267.122H230.245V266.508Z" fill="#373E46"/>
<path d="M230.245 269.876H192.877V270.49H230.245V269.876Z" fill="#373E46"/>
<path d="M230.245 273.244H192.877V273.858H230.245V273.244Z" fill="#373E46"/>
<path d="M230.245 276.616H192.877V277.231H230.245V276.616Z" fill="#373E46"/>
<path d="M230.245 279.985H192.877V280.599H230.245V279.985Z" fill="#373E46"/>
<path d="M230.245 283.353H192.877V283.967H230.245V283.353Z" fill="#373E46"/>
<path d="M230.245 286.721H192.877V287.336H230.245V286.721Z" fill="#373E46"/>
<path d="M230.245 290.09H192.877V290.704H230.245V290.09Z" fill="#373E46"/>
<path d="M230.245 293.462H192.877V294.076H230.245V293.462Z" fill="#373E46"/>
<path d="M273.107 225.619H329.173V311.07H268.529V225.619H273.107Z" fill="#EEEFF0"/>
<path d="M321.517 237.871H276.188V247.671H321.517V237.871Z" fill="#056AD4"/>
<path d="M317.535 259.771H280.167V260.385H317.535V259.771Z" fill="#373E46"/>
<path d="M317.535 263.139H280.167V263.754H317.535V263.139Z" fill="#373E46"/>
<path d="M317.535 266.508H280.167V267.122H317.535V266.508Z" fill="#373E46"/>
<path d="M317.535 269.876H280.167V270.49H317.535V269.876Z" fill="#373E46"/>
<path d="M317.535 273.244H280.167V273.858H317.535V273.244Z" fill="#373E46"/>
<path d="M317.535 276.616H280.167V277.231H317.535V276.616Z" fill="#373E46"/>
<path d="M317.535 279.985H280.167V280.599H317.535V279.985Z" fill="#373E46"/>
<path d="M317.535 283.353H280.167V283.967H317.535V283.353Z" fill="#373E46"/>
<path d="M317.535 286.721H280.167V287.336H317.535V286.721Z" fill="#373E46"/>
<path d="M317.535 290.09H280.167V290.704H317.535V290.09Z" fill="#373E46"/>
<path d="M317.535 293.462H280.167V294.076H317.535V293.462Z" fill="#373E46"/>
<path d="M211.561 225.619V166.813L124.271 225.619" stroke="#373E46" stroke-miterlimit="10"/>
<path d="M298.851 225.619L211.561 166.813" stroke="#373E46" stroke-miterlimit="10"/>
<g opacity="0.1">
<path opacity="0.1" d="M169.85 55.0815H162.432V193.536H260.69V55.0815H169.85Z" fill="black"/>
</g>
<g filter="url(#filter0_d)">
<path d="M171.532 57.8729H258.71V190.745H164.412V57.8729H171.532Z" fill="white"/>
</g>
<path d="M246.804 76.9216H176.319V92.1628H246.804V76.9216Z" fill="#056AD4"/>
<path d="M240.614 110.973H182.512V111.926H240.614V110.973Z" fill="#373E46"/>
<path d="M240.614 116.21H182.512V117.163H240.614V116.21Z" fill="#373E46"/>
<path d="M240.614 121.45H182.512V122.403H240.614V121.45Z" fill="#373E46"/>
<path d="M240.614 126.687H182.512V127.64H240.614V126.687Z" fill="#373E46"/>
<path d="M240.614 131.928H182.512V132.88H240.614V131.928Z" fill="#373E46"/>
<path d="M240.614 137.168H182.512V138.121H240.614V137.168Z" fill="#373E46"/>
<path d="M240.614 142.405H182.512V143.357H240.614V142.405Z" fill="#373E46"/>
<path d="M240.614 147.645H182.512V148.598H240.614V147.645Z" fill="#373E46"/>
<path d="M240.614 152.882H182.512V153.835H240.614V152.882Z" fill="#373E46"/>
<path d="M240.614 158.122H182.512V159.075H240.614V158.122Z" fill="#373E46"/>
<path d="M240.614 163.359H182.512V164.312H240.614V163.359Z" fill="#373E46"/>
<path d="M70.3673 283.744C70.4305 285.233 69.4889 286.539 68.5919 287.719C68.1878 288.272 67.8233 288.853 67.5014 289.457C66.5263 291.191 64.4308 292.018 63.2956 293.655C63.0239 294.054 62.8118 294.489 62.5699 294.91C61.7482 296.351 60.7157 297.662 59.5068 298.799L57.4746 300.719C56.858 301.23 56.3407 301.849 55.9486 302.547C55.6082 303.406 55.4731 304.332 55.5541 305.253V305.558C55.5541 305.629 55.5541 305.696 55.5541 305.766C55.5559 306.893 55.6807 308.016 55.9263 309.116C56.0602 309.453 56.0811 309.824 55.9858 310.173C55.8918 310.344 55.7625 310.492 55.6065 310.609C55.4506 310.726 55.2716 310.808 55.0814 310.85C54.69 311.014 54.2553 311.043 53.8457 310.932C53.4619 310.756 53.1403 310.468 52.9227 310.106C51.7243 308.461 51.2404 306.425 50.5258 304.523C50.468 304.319 50.463 304.103 50.5111 303.896C50.5593 303.689 50.6591 303.498 50.8012 303.34C51.0854 303.027 51.3982 302.742 51.7354 302.487C53.1497 301.252 53.8085 299.387 54.3408 297.589C54.873 295.792 55.4015 293.912 56.6372 292.502C57.4374 291.586 58.4981 290.927 59.3839 290.105C61.6171 288.043 62.7336 285.039 63.2994 282.062C63.9836 281.932 64.6852 281.923 65.3725 282.036L69.0274 282.519C69.4296 282.525 69.8159 282.677 70.1142 282.947C70.283 283.178 70.3718 283.458 70.3673 283.744Z" fill="#EFB7B9"/>
<path d="M85.9732 286.762C85.8966 287.314 85.7024 287.844 85.4038 288.314C84.9636 288.991 84.4654 289.629 83.915 290.22C82.5193 291.824 82.2811 294.106 81.3915 296.037C81.105 296.663 80.7439 297.254 80.4536 297.898C79.6869 299.54 79.4041 301.345 79.2366 303.161C79.218 303.392 79.1956 303.626 79.1807 303.861C79.1659 304.095 79.1361 304.438 79.1137 304.724C79.0579 305.469 79.0095 306.284 79.3296 306.957C79.4971 307.33 79.7651 307.605 79.7762 307.996C79.2254 308.532 78.2875 308.468 77.6473 308.037C77.0377 307.56 76.5704 306.925 76.2963 306.202C75.707 304.918 75.2807 303.565 75.0271 302.175C74.9303 301.65 74.8857 301.028 75.2653 300.649C75.4766 300.482 75.6992 300.33 75.9315 300.195C76.3968 299.822 76.5307 299.19 76.635 298.605C76.9923 296.598 77.3508 294.592 77.7106 292.587C77.7895 292.095 77.8951 291.608 78.0269 291.128C78.3321 290.052 78.7974 288.854 79.6683 288.151C79.7806 288.047 79.8648 287.916 79.913 287.771C79.9612 287.626 79.9717 287.471 79.9437 287.321C79.8811 287.021 79.7651 286.735 79.6013 286.476C78.9537 285.314 78.1758 284.146 76.996 283.498C78.2112 282.481 79.5975 281.689 81.0901 281.157C81.3519 281.033 81.6428 280.983 81.9312 281.012C82.0862 281.046 82.2346 281.105 82.3704 281.187C83.1478 281.679 83.8279 282.309 84.3765 283.048C85.2437 284.135 86.1332 285.389 85.9732 286.762Z" fill="#EFB7B9"/>
<path d="M57.5268 310.497C57.1648 310.153 56.7453 309.874 56.2874 309.674C56.1853 309.612 56.071 309.573 55.9524 309.559C55.6659 309.559 55.45 309.805 55.2081 309.931C55.008 310.039 54.7841 310.096 54.5567 310.096C54.3293 310.096 54.1055 310.039 53.9054 309.931C53.5097 309.709 53.1767 309.39 52.9377 309.004C52.4166 308.234 52.3124 307.467 52.0965 306.622L54.3706 306.194C54.784 306.097 55.183 305.947 55.5579 305.748C55.5579 305.677 55.5579 305.61 55.5579 305.539V305.234C55.1373 305.357 54.2478 305.77 54.0357 305.818C53.3512 305.973 52.6575 306.084 51.9588 306.15C51.8509 305.934 51.6946 305.748 51.5866 305.536C51.3311 305.113 51.1687 304.641 51.1102 304.151C51.1055 303.956 51.0677 303.764 50.9986 303.582C50.9626 303.491 50.898 303.415 50.8147 303.365C50.7314 303.314 50.6339 303.292 50.5371 303.302C50.4626 303.321 50.3929 303.356 50.3324 303.403C49.6949 303.844 49.2007 304.463 48.9106 305.182C48.4863 306.246 48.5384 307.437 48.3784 308.573C48.2481 309.425 47.9876 310.27 48.0322 311.13C48.0313 311.176 48.0443 311.221 48.0694 311.26C48.1079 311.297 48.1576 311.321 48.2109 311.327C48.6836 311.431 49.2307 311.524 49.614 311.23C49.9974 310.936 50.0532 310.378 50.1277 309.894C50.2264 309.248 50.4209 308.621 50.7046 308.033C51.2913 308.752 51.5981 309.659 51.568 310.586C51.568 311.096 51.5085 311.68 51.8583 312.053C52.03 312.218 52.2397 312.338 52.4687 312.403C52.9359 312.564 53.4207 312.669 53.9128 312.715C54.8072 312.768 55.7046 312.722 56.5889 312.577C56.868 312.544 57.1509 312.507 57.4263 312.447C57.5683 312.422 57.703 312.366 57.8208 312.283C57.948 312.165 58.0296 312.006 58.0516 311.833C58.0708 311.585 58.0335 311.336 57.9426 311.105C57.8517 310.873 57.7096 310.665 57.5268 310.497Z" fill="#464353"/>
<path d="M80.9673 307.65C80.7459 307.452 80.4947 307.289 80.2229 307.17C80.0055 307.035 79.7594 306.953 79.5046 306.931C79.2179 306.96 78.9397 307.045 78.6858 307.181C78.5581 307.248 78.4172 307.286 78.2731 307.292C78.129 307.299 77.9853 307.273 77.8521 307.218C77.6533 307.073 77.5081 306.866 77.4389 306.63C77.1189 305.885 76.8807 305.074 76.6015 304.3C76.6664 304.197 76.763 304.117 76.8769 304.073C76.9635 304.046 77.0543 304.034 77.1449 304.039C77.8193 304.06 78.4935 303.994 79.151 303.842C79.151 303.608 79.1882 303.373 79.2069 303.142C78.7358 303.098 78.2606 303.139 77.8037 303.262C77.4876 303.384 77.1474 303.431 76.8099 303.399C76.5792 303.351 76.3596 303.209 76.1363 303.18C76.0321 302.982 75.9167 302.807 75.805 302.599C75.5259 302.104 75.4328 301.527 75.1649 301.043C75.123 300.961 75.0606 300.89 74.9837 300.839C74.9068 300.787 74.818 300.757 74.7257 300.749C74.6271 300.762 74.5322 300.795 74.4466 300.846C74.3609 300.896 74.2862 300.963 74.2269 301.043C73.7451 301.476 73.3465 301.993 73.0508 302.569C72.9402 302.836 72.8555 303.113 72.7977 303.396C72.4255 304.981 72.2468 306.606 72.2655 308.234C72.6774 308.366 73.1127 308.408 73.5421 308.357C73.7629 307.26 74.0322 306.175 74.3498 305.1C74.3526 305.08 74.3593 305.061 74.3695 305.044C74.3798 305.027 74.3933 305.012 74.4093 305C74.48 304.962 74.5508 305.037 74.5917 305.104C74.9804 305.682 75.2943 306.308 75.5259 306.965C75.6194 307.444 75.7811 307.908 76.006 308.342C76.2967 308.739 76.7164 309.024 77.1933 309.146C77.668 309.266 78.1553 309.328 78.6448 309.332L79.3892 309.369C79.7821 309.416 80.1804 309.386 80.5616 309.28C80.7526 309.225 80.924 309.116 81.0558 308.967C81.1876 308.818 81.2744 308.635 81.306 308.439C81.3096 308.291 81.2812 308.143 81.2227 308.007C81.1643 307.871 81.0771 307.749 80.9673 307.65Z" fill="#464353"/>
<path d="M84.3764 282.493C84.0487 282.77 83.6505 282.951 83.2263 283.014L81.9646 283.323C81.8922 283.328 81.8216 283.348 81.7575 283.382C81.6934 283.416 81.6371 283.463 81.5924 283.521C81.5217 283.655 81.57 283.818 81.5365 283.963C81.5233 284.021 81.4965 284.075 81.4584 284.12C81.2793 284.278 81.0459 284.361 80.8071 284.351C80.5996 284.343 80.3925 284.375 80.1967 284.444C80.1149 284.479 80.0441 284.535 79.992 284.607C79.9287 284.7 79.8989 284.816 79.8319 284.901C79.718 285.026 79.5638 285.106 79.3965 285.128C79.2238 285.169 79.0484 285.196 78.8717 285.21C78.1707 285.273 77.4659 285.144 76.8321 284.838C76.6838 284.734 76.5016 284.69 76.3222 284.715C76.2174 284.754 76.1284 284.826 76.0691 284.92C76.0038 285.021 75.933 285.118 75.8569 285.21C75.5331 285.56 74.9674 285.467 74.5022 285.37C74.2119 285.307 73.9215 285.255 73.6312 285.207C71.8835 284.965 70.1216 284.841 68.3573 284.834C66.0683 284.764 63.7831 284.7 61.5723 284.161C61.0884 284.045 60.5041 283.789 60.5302 283.271C60.5302 282.988 60.7684 282.746 60.7684 282.464C60.7684 281.983 60.1766 281.719 59.7039 281.645C59.8751 279.01 61.4569 276.706 62.2794 274.201C62.4841 273.579 62.6516 272.943 62.8675 272.34C63.8687 269.571 66.0721 267.442 67.9032 265.134C68.1851 264.812 68.4161 264.448 68.5881 264.055C68.7452 263.586 68.8268 263.095 68.83 262.6L68.9305 260.862C71.6131 260.677 74.3084 260.845 76.9475 261.36C77.1221 261.38 77.2842 261.46 77.4052 261.587C77.4617 261.68 77.4961 261.785 77.5057 261.893C77.6099 262.525 77.6807 263.165 77.7216 263.806C77.7244 263.947 77.7444 264.086 77.7812 264.223C77.8526 264.394 77.9506 264.554 78.0715 264.695C79.6235 266.664 80.5502 269.072 81.2946 271.503C82.039 273.933 82.6308 276.404 83.5687 278.764C83.8888 279.579 84.3131 280.495 84.395 281.369C84.5412 281.521 84.6213 281.725 84.6178 281.935C84.6143 282.146 84.5275 282.347 84.3764 282.493Z" fill="#464353"/>
<path opacity="0.1" d="M73.6464 285.195C71.8987 284.954 70.1368 284.829 68.3725 284.823L68.5176 279.929C68.5511 278.846 68.5846 277.759 68.7149 276.683C68.8973 275.154 69.2694 273.65 69.4593 272.124C69.5652 271.247 69.6137 270.365 69.6044 269.482C69.5528 268.585 69.5777 267.686 69.6789 266.794C69.8017 266.05 70.118 265.034 70.7954 264.636C71.2458 265.25 70.5535 266.973 70.4753 267.71C70.3079 269.247 70.721 270.777 71.0783 272.277C71.5063 274.078 71.8562 275.898 72.1949 277.718C72.6837 280.204 73.1675 282.697 73.6464 285.195Z" fill="black"/>
<path opacity="0.1" d="M78.8866 285.21C78.1856 285.273 77.4808 285.144 76.847 284.838C76.6987 284.734 76.5165 284.69 76.3371 284.715C76.2323 284.754 76.1433 284.826 76.084 284.92C75.4848 282.076 75.5182 279.114 75.0418 276.241C74.8744 275.213 74.6399 274.167 74.8371 273.151C75.0493 272.061 75.7378 271.115 76.0058 270.04C76.1485 269.328 76.1985 268.602 76.1547 267.877C76.1188 267.234 75.9622 266.602 75.6932 266.016C76.3222 266.121 76.8358 266.739 77.0889 267.297C77.3615 267.995 77.5004 268.739 77.4983 269.489C77.5988 271.298 77.6137 273.103 77.5876 274.912C77.5541 275.755 77.5727 276.599 77.6435 277.439C77.7365 278.269 77.9412 279.08 78.0156 279.91C78.0938 280.908 77.9784 281.928 78.2204 282.888C78.4064 283.662 78.8307 284.444 78.8866 285.21Z" fill="black"/>
<path opacity="0.1" d="M81.4735 284.12C81.2944 284.278 81.061 284.361 80.8222 284.351C80.6147 284.343 80.4076 284.374 80.2118 284.444L79.1622 277.96C79.0176 277.165 78.9169 276.362 78.8607 275.556C78.8161 274.621 78.8868 273.695 78.8235 272.753C78.7056 271.611 78.4902 270.482 78.1796 269.377C78.0159 268.719 77.2715 266.746 77.6883 266.188C78.3397 266.608 78.7379 267.509 78.9575 268.231C79.1855 269.066 79.3302 269.921 79.3892 270.784C79.553 272.447 79.7192 274.113 79.888 275.783C80.1634 278.552 80.45 281.366 81.4139 283.971C81.4363 284.016 81.4549 284.068 81.4735 284.12Z" fill="black"/>
<path d="M86.9596 253.433C87.4249 253.038 87.8938 252.64 88.3256 252.205C88.9299 251.562 89.4883 250.878 89.9967 250.157C90.567 249.439 91.0412 248.65 91.4073 247.809C91.7795 246.83 91.906 245.717 92.5685 244.906C92.6449 244.801 92.7494 244.72 92.87 244.671C93.2422 244.552 93.5288 245.044 93.6144 245.416C93.968 247.333 93.1268 249.246 92.3043 250.999C92.0668 251.599 91.7183 252.15 91.277 252.621C91.0192 252.843 90.7495 253.05 90.4694 253.243C90.0558 253.579 89.6745 253.953 89.3305 254.359C88.7424 255.029 88.1767 255.725 87.6445 256.444C87.0222 257.363 86.3317 258.234 85.5788 259.049C84.8204 259.867 83.8177 260.418 82.7204 260.62C83.033 260.575 82.9288 258.736 82.8953 258.506C82.8469 258.167 82.6162 257.761 82.6087 257.445C82.6087 257.043 82.7651 256.983 83.1 256.701L86.9596 253.433Z" fill="#EFB7B9"/>
<path opacity="0.1" d="M86.9596 253.433C87.4249 253.038 87.8938 252.64 88.3256 252.205C88.9299 251.562 89.4883 250.878 89.9967 250.157C90.567 249.439 91.0412 248.65 91.4073 247.809C91.7795 246.83 91.906 245.717 92.5685 244.906C92.6449 244.801 92.7494 244.72 92.87 244.671C93.2422 244.552 93.5288 245.044 93.6144 245.416C93.968 247.333 93.1268 249.246 92.3043 250.999C92.0668 251.599 91.7183 252.15 91.277 252.621C91.0192 252.843 90.7495 253.05 90.4694 253.243C90.0558 253.579 89.6745 253.953 89.3305 254.359C88.7424 255.029 88.1767 255.725 87.6445 256.444C87.0222 257.363 86.3317 258.234 85.5788 259.049C84.8204 259.867 83.8177 260.418 82.7204 260.62C83.033 260.575 82.9288 258.736 82.8953 258.506C82.8469 258.167 82.6162 257.761 82.6087 257.445C82.6087 257.043 82.7651 256.983 83.1 256.701L86.9596 253.433Z" fill="black"/>
<path d="M73.8062 241.835C73.8062 241.835 72.7343 247.154 71.5023 248.055C70.2704 248.955 78.2353 250.001 78.2353 250.001C78.2353 250.001 78.4139 245.751 80.5391 243.801C82.6643 241.85 73.8062 241.835 73.8062 241.835Z" fill="#EFB7B9"/>
<path d="M71.6885 247.515C71.16 247.592 70.6768 247.856 70.3263 248.259C69.4926 249.16 69.3251 250.53 69.6117 251.724C69.9643 252.904 70.5307 254.01 71.2828 254.985C72.1482 256.336 73.2165 257.546 74.4502 258.573C75.1384 259.071 75.8528 259.532 76.5903 259.953C77.8136 260.706 78.9894 261.532 80.1112 262.429C80.3586 262.65 80.6401 262.829 80.9449 262.961C81.2073 263.042 81.4818 263.077 81.7563 263.065C82.6871 263.057 83.6046 262.843 84.4435 262.44C84.5221 262.41 84.5914 262.36 84.6445 262.295C84.674 262.226 84.6893 262.152 84.6893 262.077C84.6893 262.002 84.674 261.928 84.6445 261.859C84.142 259.842 85.106 257.549 84.1494 255.703C83.111 256.038 81.9684 256.403 80.93 256.741C80.7702 256.804 80.5991 256.834 80.4275 256.827C80.2209 256.784 80.0317 256.68 79.8841 256.529C78.7676 255.554 78.0455 254.196 77.3979 252.856C76.7503 251.516 76.1213 250.128 75.109 249.037C74.0966 247.947 73.1698 247.359 71.6885 247.515Z" fill="#056AD4"/>
<path opacity="0.1" d="M71.6885 247.515C71.16 247.592 70.6768 247.856 70.3263 248.259C69.4926 249.16 69.3251 250.53 69.6117 251.724C69.9643 252.904 70.5307 254.01 71.2828 254.985C72.1482 256.336 73.2165 257.546 74.4502 258.573C75.1384 259.071 75.8528 259.532 76.5903 259.953C77.8136 260.706 78.9894 261.532 80.1112 262.429C80.3586 262.65 80.6401 262.829 80.9449 262.961C81.2073 263.042 81.4818 263.077 81.7563 263.065C82.6871 263.057 83.6046 262.843 84.4435 262.44C84.5221 262.41 84.5914 262.36 84.6445 262.295C84.674 262.226 84.6893 262.152 84.6893 262.077C84.6893 262.002 84.674 261.928 84.6445 261.859C84.142 259.842 85.106 257.549 84.1494 255.703C83.111 256.038 81.9684 256.403 80.93 256.741C80.7702 256.804 80.5991 256.834 80.4275 256.827C80.2209 256.784 80.0317 256.68 79.8841 256.529C78.7676 255.554 78.0455 254.196 77.3979 252.856C76.7503 251.516 76.1213 250.128 75.109 249.037C74.0966 247.947 73.1698 247.359 71.6885 247.515Z" fill="black"/>
<path d="M77.9711 245.821C80.9064 245.821 83.286 243.442 83.286 240.507C83.286 237.571 80.9064 235.192 77.9711 235.192C75.0358 235.192 72.6562 237.571 72.6562 240.507C72.6562 243.442 75.0358 245.821 77.9711 245.821Z" fill="#EFB7B9"/>
<path d="M80.0927 255.807V255.83C79.7838 256.399 79.326 256.879 79.0096 257.445C78.6823 258.105 78.46 258.812 78.3509 259.54C78.2504 260.024 78.161 260.508 78.0792 260.996C77.9973 261.483 77.9154 261.982 77.841 262.484C76.2368 261.941 74.4578 262.857 72.7941 262.522C72.3067 262.374 71.8091 262.262 71.3053 262.187C70.9331 262.187 70.5609 262.254 70.1887 262.22C69.5746 262.161 68.9642 261.774 68.3762 261.971C68.1156 262.06 67.7918 262.246 67.602 262.041C67.5589 261.987 67.5261 261.925 67.5052 261.859C67.3124 261.454 67.2438 261.001 67.308 260.556C67.4472 260.202 67.6337 259.867 67.8626 259.563C68.147 258.964 68.2944 258.309 68.2943 257.646C68.4022 255.938 68.3985 254.214 68.6665 252.525C68.9345 250.835 69.5374 249.153 70.68 247.876C71.2075 247.212 71.9669 246.773 72.8052 246.648C75.8795 246.398 78.362 248.092 79.7056 250.783C80.4984 252.338 80.9227 254.263 80.0927 255.807Z" fill="#056AD4"/>
<path d="M89.0846 254.144C89.5535 253.745 90.0225 253.351 90.4505 252.912C91.0559 252.272 91.6144 251.589 92.1216 250.868C92.6944 250.15 93.1699 249.359 93.536 248.516C93.9082 247.541 94.031 246.428 94.6972 245.617C94.771 245.511 94.8746 245.429 94.9949 245.382C95.3671 245.263 95.6537 245.754 95.7393 246.127C96.1115 248.043 95.248 249.96 94.4255 251.71C94.1907 252.311 93.8433 252.861 93.402 253.332C93.1526 253.563 92.8623 253.745 92.5943 253.95C92.179 254.284 91.7975 254.658 91.4554 255.067C90.8649 255.742 90.3016 256.436 89.7657 257.151C89.1436 258.069 88.4544 258.94 87.7037 259.756C86.9431 260.574 85.9397 261.126 84.8416 261.331C85.158 261.286 85.0537 259.444 85.0203 259.213C84.9054 258.866 84.8097 258.513 84.7337 258.156C84.7337 257.75 84.89 257.691 85.2212 257.411L89.0846 254.144Z" fill="#EFB7B9"/>
<path opacity="0.1" d="M79.5605 255.986V256.008C79.2553 256.578 78.7938 257.054 78.4774 257.624C78.1492 258.283 77.9269 258.99 77.8186 259.719C77.7219 260.203 77.6288 260.687 77.5469 261.174C76.9044 260.809 76.2831 260.408 75.686 259.972C74.4501 258.947 73.3804 257.737 72.5149 256.384C71.7628 255.409 71.1963 254.304 70.8438 253.124C70.5572 251.929 70.7247 250.559 71.5621 249.659C71.9133 249.262 72.3954 249.004 72.9206 248.933C74.4094 248.773 75.3398 249.346 76.3522 250.422C77.3646 251.497 77.9936 252.897 78.6412 254.24C78.9315 254.84 79.2255 255.428 79.5605 255.986Z" fill="black"/>
<path d="M73.8137 248.222C73.2865 248.3 72.8047 248.564 72.4552 248.966C71.6178 249.867 71.4503 251.237 71.7406 252.432C72.0309 253.626 72.7083 254.665 73.408 255.692C74.2754 257.043 75.3448 258.253 76.579 259.28C77.2661 259.777 77.9792 260.236 78.7154 260.657C79.9393 261.408 81.1152 262.235 82.2363 263.132C82.4826 263.355 82.7644 263.535 83.07 263.664C83.3335 263.747 83.6093 263.783 83.8851 263.772C84.8159 263.76 85.7329 263.545 86.5724 263.143C86.6514 263.114 86.721 263.064 86.7733 262.998C86.8028 262.93 86.8181 262.856 86.8181 262.782C86.8181 262.708 86.8028 262.634 86.7733 262.566C86.2746 260.545 87.2386 258.253 86.282 256.406L83.0589 257.445C82.8997 257.51 82.7282 257.539 82.5564 257.531C82.3512 257.486 82.1629 257.384 82.013 257.236C80.8965 256.261 80.1744 254.903 79.5268 253.559C78.8792 252.216 78.2539 250.835 77.2378 249.744C76.2217 248.654 75.295 248.055 73.8137 248.222Z" fill="#056AD4"/>
<path d="M81.4065 236.792C81.9239 236.208 81.8122 235.259 81.3619 234.622C80.8608 234.014 80.2231 233.534 79.5009 233.219C78.4029 232.635 77.1412 232.073 75.9614 232.475C75.5091 232.658 75.0754 232.883 74.6662 233.148C73.8846 233.584 73.0211 233.859 72.2246 234.265C71.3967 234.629 70.7225 235.272 70.319 236.081C69.984 236.889 70.0882 237.801 70.1775 238.687C70.3481 240.032 70.3568 241.393 70.2036 242.74C70.0457 244.094 69.5235 245.38 68.6925 246.462C68.0933 247.206 67.3005 247.809 66.9395 248.695C66.7632 249.201 66.664 249.73 66.6455 250.265L66.4519 252.551C66.3775 253.463 66.2621 254.456 65.6033 255.093C66.3016 255.02 66.978 254.808 67.592 254.468C68.206 254.127 68.7449 253.666 69.1764 253.113C69.85 252.368 70.5497 251.579 70.7507 250.597C70.9033 249.852 70.7768 249.03 71.2234 248.431C71.7482 247.723 72.8685 247.716 73.6129 248.185C74.3572 248.654 74.815 249.458 75.2133 250.243C75.6115 251.028 76.0098 251.851 76.702 252.406C77.2656 252.835 77.929 253.114 78.63 253.217C78.8598 253.285 79.1016 253.304 79.3391 253.271C79.5766 253.238 79.8043 253.155 80.0071 253.027C80.517 252.618 80.4649 251.832 80.3011 251.2C80.0815 250.362 79.7428 249.491 79.981 248.654C80.0592 248.378 80.1969 248.118 80.2825 247.843C80.3868 247.442 80.4357 247.028 80.4277 246.614C80.476 244.537 80.5728 242.301 79.8991 240.287C79.6833 239.647 79.1027 239.036 79.4004 238.344C79.7763 237.466 80.8445 237.436 81.4065 236.792Z" fill="#464353"/>
<g opacity="0.1">
<path opacity="0.1" d="M70.3154 240.35C70.3433 239.368 70.3022 238.386 70.1925 237.41C70.1925 237.22 70.1516 237.038 70.1367 236.833C70.0885 237.44 70.1072 238.05 70.1925 238.653C70.2484 239.215 70.293 239.781 70.3154 240.35Z" fill="black"/>
<path opacity="0.1" d="M80.0145 251.75C79.8114 251.878 79.5837 251.96 79.3463 251.993C79.109 252.026 78.8674 252.008 78.6374 251.94C77.9364 251.837 77.2731 251.558 76.7095 251.129C76.0247 250.571 75.6301 249.748 75.2207 248.966C74.8113 248.185 74.3647 247.373 73.6203 246.908C72.8759 246.443 71.7594 246.447 71.2308 247.154C70.7842 247.753 70.9108 248.587 70.7582 249.32C70.5572 250.303 69.8575 251.095 69.1838 251.836C68.8433 252.241 68.4574 252.606 68.0337 252.923C67.5046 253.26 66.9218 253.504 66.3105 253.645C66.2258 254.175 65.9817 254.667 65.6108 255.055C66.309 254.983 66.9854 254.77 67.5994 254.43C68.2134 254.09 68.7523 253.629 69.1838 253.075C69.8575 252.331 70.5572 251.542 70.7582 250.559C70.9108 249.815 70.7842 248.993 71.2308 248.393C71.7556 247.686 72.8759 247.679 73.6203 248.148C74.3647 248.617 74.8225 249.421 75.2207 250.206C75.619 250.991 76.0172 251.814 76.7095 252.368C77.2731 252.798 77.9364 253.077 78.6374 253.18C78.8672 253.248 79.109 253.266 79.3465 253.234C79.584 253.201 79.8118 253.118 80.0145 252.99C80.4909 252.618 80.476 251.873 80.3383 251.285C80.2748 251.467 80.1628 251.628 80.0145 251.75Z" fill="black"/>
<path opacity="0.1" d="M81.4064 235.553C80.8444 236.193 79.7763 236.226 79.4078 237.079C79.3442 237.253 79.3195 237.439 79.3356 237.623C79.3517 237.808 79.4081 237.987 79.5008 238.147C79.9288 237.458 80.8854 237.403 81.4064 236.792C81.5833 236.566 81.6981 236.298 81.7392 236.014C81.7803 235.73 81.7464 235.44 81.6409 235.173C81.5859 235.313 81.5065 235.441 81.4064 235.553Z" fill="black"/>
<path opacity="0.1" d="M80.4352 245.338C80.4432 245.752 80.3944 246.165 80.2901 246.566C80.2045 246.841 80.0667 247.098 79.9886 247.377C79.888 247.797 79.888 248.234 79.9886 248.654V248.617C80.0667 248.341 80.2045 248.081 80.2901 247.805C80.3944 247.404 80.4432 246.991 80.4352 246.577C80.4538 245.751 80.4799 244.902 80.465 244.05C80.4575 244.482 80.4464 244.913 80.4352 245.338Z" fill="black"/>
</g>
<path d="M329.218 272.247C329.218 290.946 340.949 306.079 355.446 306.079L329.218 272.247Z" fill="#46455B"/>
<path d="M355.446 306.083C355.446 287.172 368.54 271.871 384.719 271.871L355.446 306.083Z" fill="#056AD4"/>
<path d="M338.724 273.944C338.724 291.709 346.205 306.083 355.446 306.083L338.724 273.944Z" fill="#056AD4"/>
<path d="M355.446 306.083C355.446 281.92 370.58 262.365 389.278 262.365L355.446 306.083Z" fill="#46455B"/>
<path opacity="0.1" d="M354.311 312.544C357.912 312.544 360.832 312.051 360.832 311.442C360.832 310.834 357.912 310.341 354.311 310.341C350.71 310.341 347.79 310.834 347.79 311.442C347.79 312.051 350.71 312.544 354.311 312.544Z" fill="#056AD4"/>
<path d="M349.93 306.321C349.93 306.321 353.652 306.206 354.769 305.409C355.885 304.613 360.489 303.656 360.768 304.936C361.048 306.217 366.351 311.305 362.157 311.338C357.962 311.372 352.398 310.683 351.281 310.002C350.165 309.321 349.93 306.321 349.93 306.321Z" fill="#A8A8A8"/>
<path opacity="0.2" d="M362.235 310.891C358.037 310.925 352.48 310.236 351.36 309.555C350.507 309.038 350.169 307.173 350.053 306.317H349.93C349.93 306.317 350.165 309.317 351.285 309.998C352.405 310.679 357.962 311.368 362.161 311.334C363.374 311.334 363.791 310.891 363.768 310.255C363.601 310.642 363.139 310.884 362.235 310.891Z" fill="black"/>
</g>
<defs>
<filter id="filter0_d" x="162.412" y="55.8729" width="98.298" height="136.872" filterUnits="userSpaceOnUse" color-interpolation-filters="sRGB">
<feFlood flood-opacity="0" result="BackgroundImageFix"/>
<feColorMatrix in="SourceAlpha" type="matrix" values="0 0 0 0 0 0 0 0 0 0 0 0 0 0 0 0 0 0 127 0"/>
<feOffset/>
<feGaussianBlur stdDeviation="1"/>
<feColorMatrix type="matrix" values="0 0 0 0 0 0 0 0 0 0 0 0 0 0 0 0 0 0 0.2 0"/>
<feBlend mode="normal" in2="BackgroundImageFix" result="effect1_dropShadow"/>
<feBlend mode="normal" in="SourceGraphic" in2="effect1_dropShadow" result="shape"/>
</filter>
<clipPath id="clip0">
<rect width="381.123" height="300" fill="white" transform="translate(21 22.5)"/>
</clipPath>
</defs>
</svg>
