<svg width="711" height="547" viewBox="0 0 711 547" fill="none" xmlns="http://www.w3.org/2000/svg">
<g clip-path="url(#clip0)">
<path opacity="0.1" d="M697.729 124.513C690.458 110.378 680.924 97.53 669.504 86.4776L277.985 83.2146L600.337 44.9209C579.245 37.8598 557.175 34.1568 534.935 33.9474C503.902 12.7501 464.017 0.0317383 420.513 0.0317383C381.478 0.0317383 345.383 10.2934 315.956 27.7048C290.948 16.8069 262.44 10.6272 232.151 10.6272C145.16 10.6272 72.6745 61.5889 56.4121 129.175L697.729 124.513Z" fill="white"/>
<path opacity="0.1" d="M711.492 181.194C711.465 162.675 707.296 144.397 699.29 127.7L20.7392 187.947C13.8518 198.452 8.49875 209.888 4.84199 221.907L214.969 248.402L0.0507812 267.716C6.51671 344.228 84.0575 404.638 178.78 404.638C226.459 404.638 269.781 389.331 301.884 364.367C334.088 389.803 377.826 405.445 426.021 405.445C497.524 405.445 559.243 371.006 587.984 321.216C645.642 305.732 690.432 266.865 705.762 218.241L440.03 183.38H711.492C711.492 182.649 711.492 181.925 711.492 181.194Z" fill="white"/>
<path opacity="0.1" d="M314.835 546.84C415.665 546.84 497.404 543.191 497.404 538.689C497.404 534.187 415.665 530.537 314.835 530.537C214.004 530.537 132.265 534.187 132.265 538.689C132.265 543.191 214.004 546.84 314.835 546.84Z" fill="white"/>
<path d="M423.195 524.352V529.278H277.601V525.278C286.48 521.986 294.184 516.133 299.736 508.459C305.289 500.785 308.441 491.635 308.794 482.167C309.146 472.699 306.683 463.34 301.717 455.274C296.75 447.208 289.504 440.797 280.894 436.854H422.206C413.789 440.709 406.671 446.925 401.715 454.747C396.758 462.57 394.175 471.663 394.28 480.924C394.384 490.185 397.172 499.218 402.304 506.926C407.436 514.634 414.693 520.687 423.195 524.352V524.352Z" fill="#C8CAD7"/>
<path opacity="0.1" d="M422.206 436.854C415.712 439.837 409.966 444.236 405.391 449.728C400.816 455.22 397.526 461.667 395.763 468.596H307.343C305.579 461.667 302.289 455.221 297.714 449.729C293.138 444.237 287.394 439.838 280.9 436.854H422.206Z" fill="black"/>
<path d="M110.859 411.757V439.411C110.859 454.68 122.028 467.059 135.81 467.059H564.198C577.98 467.059 589.149 454.68 589.149 439.411V411.757H110.859Z" fill="#C8CAD7"/>
<path opacity="0.1" d="M423.195 524.351V529.278H277.601V525.277C281.592 523.791 285.368 521.779 288.827 519.293H414.267C417.054 521.293 420.047 522.989 423.195 524.351V524.351Z" fill="black"/>
<path d="M465.326 520.83H235.468C232.165 520.83 229.487 523.509 229.487 526.814V529.441C229.487 532.746 232.165 535.425 235.468 535.425H465.326C468.63 535.425 471.308 532.746 471.308 529.441V526.814C471.308 523.509 468.63 520.83 465.326 520.83Z" fill="#C8CAD7"/>
<path d="M589.149 108.74C589.141 102.125 586.508 95.7836 581.83 91.1097C577.151 86.4358 570.81 83.8113 564.198 83.813H135.829C129.214 83.8063 122.868 86.4285 118.185 91.103C113.502 95.7774 110.867 102.121 110.859 108.74V417.137H589.149V108.74Z" fill="#002852"/>
<path d="M576.129 119.876V384.871C576.13 386.485 575.812 388.084 575.195 389.575C574.578 391.067 573.674 392.422 572.533 393.563C571.392 394.705 570.038 395.61 568.547 396.227C567.056 396.845 565.459 397.162 563.845 397.161H136.213C134.6 397.162 133.002 396.845 131.511 396.227C130.021 395.61 128.666 394.705 127.526 393.563C126.385 392.422 125.48 391.067 124.863 389.575C124.246 388.084 123.929 386.485 123.93 384.871V119.876C123.93 116.617 125.224 113.491 127.527 111.186C129.831 108.881 132.955 107.586 136.213 107.586H563.814C565.43 107.582 567.03 107.897 568.524 108.513C570.018 109.129 571.376 110.033 572.52 111.175C573.664 112.317 574.571 113.673 575.191 115.166C575.81 116.659 576.129 118.26 576.129 119.876V119.876Z" fill="#056AD4"/>
<path d="M350.01 101.445C353.192 101.445 355.771 98.8642 355.771 95.6809C355.771 92.4976 353.192 89.917 350.01 89.917C346.829 89.917 344.25 92.4976 344.25 95.6809C344.25 98.8642 346.829 101.445 350.01 101.445Z" fill="white"/>
<path d="M350.01 454.775C357.855 454.775 364.214 448.413 364.214 440.564C364.214 432.715 357.855 426.353 350.01 426.353C342.166 426.353 335.807 432.715 335.807 440.564C335.807 448.413 342.166 454.775 350.01 454.775Z" fill="white"/>
<path d="M219.483 113.735V397.161H136.213C134.6 397.162 133.002 396.845 131.511 396.228C130.021 395.61 128.666 394.705 127.526 393.564C126.385 392.422 125.48 391.067 124.863 389.576C124.246 388.084 123.929 386.486 123.93 384.871V119.877L124.377 118.207L125.573 113.735H219.483Z" fill="white"/>
<path d="M230.167 118.207V143.719H123.93V119.876L124.377 118.207H230.167Z" fill="#056AD4"/>
<path d="M576.129 119.877H123.93C123.93 118.263 124.247 116.665 124.865 115.174C125.482 113.684 126.387 112.329 127.528 111.188C128.668 110.048 130.023 109.143 131.513 108.526C133.003 107.909 134.6 107.592 136.213 107.593H563.814C565.429 107.588 567.03 107.902 568.524 108.517C570.018 109.132 571.375 110.036 572.52 111.177C573.664 112.318 574.571 113.674 575.191 115.167C575.81 116.66 576.129 118.26 576.129 119.877V119.877Z" fill="#C8CAD7"/>
<path d="M136.212 116.808C137.909 116.808 139.284 115.432 139.284 113.734C139.284 112.037 137.909 110.661 136.212 110.661C134.515 110.661 133.14 112.037 133.14 113.734C133.14 115.432 134.515 116.808 136.212 116.808Z" fill="#EDEDF4"/>
<path d="M145.423 116.808C147.12 116.808 148.495 115.432 148.495 113.734C148.495 112.037 147.12 110.661 145.423 110.661C143.727 110.661 142.352 112.037 142.352 113.734C142.352 115.432 143.727 116.808 145.423 116.808Z" fill="#EDEDF4"/>
<path d="M154.634 116.808C156.331 116.808 157.706 115.432 157.706 113.734C157.706 112.037 156.331 110.661 154.634 110.661C152.937 110.661 151.562 112.037 151.562 113.734C151.562 115.432 152.937 116.808 154.634 116.808Z" fill="#EDEDF4"/>
<path d="M203.604 129.439H139.808V135.316H203.604V129.439Z" fill="white"/>
<path opacity="0.5" d="M203.604 158.101H139.808V163.978H203.604V158.101Z" fill="white"/>
<path opacity="0.5" d="M203.604 178.366H139.808V184.243H203.604V178.366Z" fill="white"/>
<path opacity="0.5" d="M203.604 198.631H139.808V204.508H203.604V198.631Z" fill="white"/>
<path opacity="0.5" d="M203.604 218.89H139.808V224.767H203.604V218.89Z" fill="white"/>
<path opacity="0.5" d="M203.604 239.155H139.808V245.032H203.604V239.155Z" fill="white"/>
<path opacity="0.5" d="M203.604 259.419H139.808V265.297H203.604V259.419Z" fill="white"/>
<path opacity="0.5" d="M203.604 279.678H139.808V285.556H203.604V279.678Z" fill="white"/>
<path opacity="0.5" d="M554.408 151.052H271.714V151.997H554.408V151.052Z" fill="#DCE0ED"/>
<path opacity="0.5" d="M554.408 172.993H271.714V173.938H554.408V172.993Z" fill="#DCE0ED"/>
<path opacity="0.5" d="M554.408 194.939H271.714V195.884H554.408V194.939Z" fill="#DCE0ED"/>
<path opacity="0.5" d="M554.408 216.88H271.714V217.825H554.408V216.88Z" fill="#DCE0ED"/>
<path opacity="0.5" d="M554.408 238.821H271.714V239.766H554.408V238.821Z" fill="#DCE0ED"/>
<path opacity="0.5" d="M554.414 239.759H271.368V196.609L297.326 209.409L324.191 213.05L347.763 205.938L376.201 183.871L390.506 175.607L400.963 173.591L410.968 174.126L427.425 182.259L449.788 196.514L467.341 198.776L481.262 193.976L510.758 169.799L525.818 164.425L541.577 166.863L554.414 174.277V239.759Z" fill="white"/>
<path d="M320.703 213.063C295.217 213.063 271.657 197.466 271.368 197.264L272.067 196.218C272.432 196.464 308.684 220.465 339.49 208.439C350.734 204.061 358.718 197.239 366.474 190.65C374.552 183.765 382.183 177.257 392.577 174.435C404.539 171.204 417.541 174.133 427.444 182.272C435.906 189.232 452.766 200.414 470.578 197.069C479.656 195.368 487.312 188.728 495.415 181.705C510.928 168.224 527.021 154.309 554.78 174.29L554.043 175.311C527.065 155.915 511.382 169.509 496.221 182.656C487.986 189.799 480.204 196.514 470.792 198.31C452.47 201.743 435.257 190.347 426.626 183.248C417.037 175.361 404.426 172.539 392.892 175.657C382.762 178.404 375.263 184.817 367.274 191.607C359.461 198.266 351.377 205.157 339.949 209.617C333.804 211.954 327.277 213.123 320.703 213.063Z" fill="white"/>
<path d="M407.744 180.476C411.614 180.476 414.752 177.337 414.752 173.465C414.752 169.593 411.614 166.454 407.744 166.454C403.874 166.454 400.737 169.593 400.737 173.465C400.737 177.337 403.874 180.476 407.744 180.476Z" fill="white"/>
<path d="M232.131 325.827C222.555 320.309 218.91 318.942 218.91 318.936L218.715 318.797C217.669 317.994 216.838 316.945 216.297 315.742C216.297 315.521 216.297 315.301 216.297 315.112V315.175C216.454 312.252 218.526 309.6 220.496 307.282C222.175 305.304 223.854 303.328 225.533 301.354C226.112 300.754 226.554 300.037 226.83 299.25C226.933 298.838 226.979 298.415 226.968 297.99C226.968 297.814 226.968 297.644 226.968 297.474C226.968 296 226.899 294.526 226.849 293.064C226.799 291.773 226.471 290.154 225.18 289.915C224.513 289.776 223.632 290.015 223.292 289.442C223.168 289.208 223.137 288.936 223.204 288.68C223.204 288.68 223.204 288.718 223.204 288.737C223.201 288.714 223.201 288.69 223.204 288.667C223.452 287.673 223.612 286.659 223.682 285.637C223.705 285.119 223.634 284.6 223.474 284.107C222.725 281.971 220.163 281.096 217.896 280.692C215.63 280.289 213.086 279.943 211.663 278.173C211.273 277.582 210.853 277.013 210.404 276.466C209.745 275.884 208.943 275.489 208.081 275.319C205.269 274.622 202.305 274.881 199.657 276.056C198.561 276.547 197.459 277.203 196.257 277.133C195.054 277.064 193.94 276.188 192.706 275.98C190.716 275.64 188.809 277.108 187.827 278.84C187.244 279.869 186.934 281.029 186.926 282.211C186.926 282.274 186.926 282.343 186.926 282.406C186.901 283.676 187.366 284.908 188.223 285.845C189.08 286.74 190.358 287.351 190.742 288.522C190.886 289.001 190.855 289.518 190.981 289.996C190.981 290.059 191.019 290.116 191.038 290.179L190.968 290.261C188.923 292.895 187.815 296.136 187.82 299.471C187.84 302.709 188.887 305.857 190.811 308.461C192.735 311.065 195.435 312.99 198.523 313.959C198.523 314.104 198.523 314.255 198.523 314.413C198.566 315.358 198.402 316.302 198.044 317.178C197.685 318.053 197.14 318.84 196.446 319.484L182.859 324.939C182.859 324.939 174.674 323.969 171.728 335.931C171.256 337.916 171.086 339.962 171.224 341.998C171.331 343.805 171.079 346.98 168.983 351.087C165.627 357.664 166.389 372.751 173.252 374.244C179.73 375.655 182.267 375.069 182.532 375V375.264C182.425 378.099 181.398 402.515 177.665 405.501C176.626 406.314 176.821 406.868 177.665 407.24C177.665 407.24 177.665 407.397 177.665 407.681C177.552 409.47 176.972 416.267 174.473 420.141C171.602 424.607 171.929 450.434 171.929 450.434L169.952 465.672C169.952 465.672 171.168 475.084 169.952 476.728C168.863 478.196 167.434 513.018 167.107 520.565H166.981C166.383 520.601 165.803 520.783 165.292 521.095C164.78 521.407 164.353 521.839 164.047 522.354C162.422 524.962 156.819 529.768 156.819 529.768C155.604 531.501 151.096 533.157 148.716 533.938C148.398 534.041 148.09 534.174 147.797 534.335C146.906 534.821 146.19 535.575 145.751 536.49C145.596 536.759 145.497 537.057 145.461 537.365C145.424 537.674 145.45 537.987 145.537 538.285C146.166 539.778 158.802 540.805 162.001 539.331C164.519 538.159 174.492 536.609 178.635 536.005C179.386 535.91 180.085 535.567 180.621 535.031C181.157 534.495 181.499 533.796 181.594 533.044C181.633 532.784 181.62 532.52 181.555 532.265C181.491 532.011 181.375 531.772 181.216 531.564V531.564C180.423 530.581 180.013 527.897 179.831 526.146C180.167 526.008 180.481 525.822 180.763 525.592C180.423 520.162 181.201 514.721 183.048 509.604C186.095 501.541 187.014 486.599 186.253 476.885C186.253 476.885 195.552 436.84 202.874 433.105C202.987 433.243 206.538 437.804 206.991 451.927C207.445 466.271 212.626 475.682 212.626 475.682C212.626 475.682 210.341 500.035 212.626 509.151L209.623 523.507C209.498 523.404 209.378 523.295 209.264 523.179C209.264 523.179 209.352 523.582 209.478 524.219L209.415 524.521L209.541 524.552C209.881 526.348 210.385 529.479 210.171 531.318C210.051 532.37 209.762 533.8 209.541 535.211C209.227 537.422 209.138 539.57 210.303 540.036C212.192 540.805 223.418 541.857 225.325 539.406C225.753 538.904 226.031 538.292 226.129 537.64C226.227 536.987 226.141 536.321 225.879 535.715C225.741 535.377 225.554 535.061 225.325 534.776C225.325 534.776 222.347 529.907 223.191 526.474C223.268 526.139 223.276 525.792 223.215 525.454C223.153 525.116 223.023 524.794 222.832 524.508C223.269 519.073 224.142 513.683 225.445 508.388C227.334 501.201 231.376 485.44 228.417 475.071C228.303 474.668 228.177 474.265 228.039 473.874C226.329 468.216 225.758 462.274 226.358 456.394C225.256 451.374 225.256 446.175 226.358 441.155C228.171 432.796 229.449 424.607 229.449 424.607C229.449 424.607 230.456 413.552 229.575 406.774L229.518 406.339L229.997 406.232C229.997 406.232 227.409 394.729 226.49 387.409C226.276 385.677 225.993 383.491 225.684 381.154C226.528 381.009 227.36 380.799 228.171 380.524C236.406 377.683 238.994 351.982 238.994 351.982V343.831C238.994 343.831 241.739 331.377 232.131 325.827ZM170.79 524.256L170.387 524.042L170.79 524.256Z" fill="url(#paint0_linear)"/>
<path d="M227.164 474.12C230.734 484.394 226.534 501.069 224.646 508.515C223.374 513.899 222.531 519.375 222.127 524.893C217.782 525.627 213.338 525.524 209.032 524.59L212.18 509.258C209.951 500.174 212.18 475.903 212.18 475.903C212.18 475.903 207.143 466.517 206.677 452.224C206.236 438.157 202.773 433.609 202.66 433.464C195.464 437.206 186.41 477.1 186.41 477.1C187.153 486.775 186.259 501.667 183.262 509.711C181.456 514.818 180.696 520.236 181.027 525.642C179.988 526.518 178.54 526.669 176.979 526.417C172.729 525.731 167.636 522.064 167.636 522.064C167.636 522.064 169.273 478.599 170.463 476.948C171.653 475.298 170.463 465.931 170.463 465.931L172.395 450.743C172.395 450.743 172.1 424.985 174.914 420.506C177.357 416.645 177.917 409.867 178.03 408.09C178.03 407.807 178.03 407.649 178.03 407.649L182.337 402.49C182.337 402.49 224.01 399.341 227.132 402.49C227.9 403.259 228.392 405.01 228.656 407.202C229.512 413.955 228.53 424.973 228.53 424.973C228.53 424.973 227.271 433.162 225.495 441.496C224.421 446.501 224.421 451.678 225.495 456.683C224.914 462.549 225.481 468.472 227.164 474.12V474.12Z" fill="#65617D"/>
<path d="M224.558 539.413C222.7 541.869 211.764 540.83 209.901 540.043C208.761 539.57 208.849 537.435 209.158 535.23C209.353 533.825 209.636 532.395 209.75 531.356C210.052 528.672 208.862 523.236 208.862 523.236C208.862 523.236 211.317 525.844 211.909 523.236C212.046 522.739 212.316 522.288 212.69 521.933C213.064 521.578 213.527 521.331 214.031 521.22C215.306 520.834 216.678 520.919 217.896 521.46C219.829 522.297 223.053 524.086 222.474 526.499C221.655 529.92 224.558 534.77 224.558 534.77C224.783 535.055 224.965 535.371 225.099 535.709C225.36 536.316 225.448 536.983 225.352 537.637C225.257 538.291 224.982 538.906 224.558 539.413V539.413Z" fill="#A27772"/>
<path opacity="0.1" d="M224.557 539.413C222.7 541.869 211.764 540.83 209.9 540.043C208.761 539.57 208.849 537.435 209.158 535.23C210.329 535.778 212.306 536.238 215.655 535.93C216.433 535.854 217.216 535.829 217.997 535.854C220.365 535.965 222.737 535.919 225.099 535.715C225.359 536.322 225.446 536.988 225.35 537.641C225.255 538.293 224.98 538.907 224.557 539.413V539.413Z" fill="black"/>
<path opacity="0.1" d="M186.411 477.1C187.154 486.776 186.26 501.667 183.263 509.712C181.457 514.818 180.696 520.236 181.028 525.643C179.989 526.518 178.541 526.67 176.979 526.418C177.88 520.118 181.701 493.075 184.157 471.701C186.946 447.354 200.004 430.604 200.004 430.604L202.61 433.471C195.464 437.206 186.411 477.1 186.411 477.1Z" fill="black"/>
<path d="M220.093 320.605L218.274 329.538L209.378 344.505L198.404 339.812C198.404 339.812 183.483 324.177 192.857 321.947C193.981 321.707 195.042 321.235 195.974 320.561C197.812 319.169 198.391 317.153 198.404 315.175C198.33 312.959 197.812 310.781 196.88 308.769L216.077 302.74C215.283 305.263 214.819 307.878 214.698 310.52C214.553 315.748 216.492 318.331 218.085 319.559C218.678 320.039 219.361 320.394 220.093 320.605V320.605Z" fill="#FBBEBE"/>
<path opacity="0.1" d="M216.077 302.74C215.283 305.263 214.819 307.878 214.698 310.52C212.753 312.83 210.163 314.506 207.261 315.335C204.358 316.165 201.275 316.109 198.404 315.175C198.33 312.959 197.812 310.781 196.88 308.769L216.077 302.74Z" fill="black"/>
<path d="M218.274 300.283C218.274 303.287 217.384 306.224 215.716 308.721C214.048 311.219 211.677 313.166 208.904 314.315C206.13 315.465 203.078 315.765 200.133 315.179C197.189 314.593 194.484 313.147 192.361 311.023C190.238 308.899 188.792 306.193 188.207 303.246C187.621 300.3 187.922 297.247 189.071 294.471C190.219 291.696 192.165 289.324 194.661 287.655C197.158 285.986 200.092 285.096 203.095 285.096C205.089 285.091 207.066 285.48 208.909 286.242C210.753 287.003 212.429 288.122 213.839 289.533C215.25 290.944 216.368 292.621 217.129 294.465C217.89 296.31 218.279 298.288 218.274 300.283V300.283Z" fill="#FBBEBE"/>
<path opacity="0.1" d="M220.093 320.605L218.274 329.538L209.378 344.505L198.404 339.812C198.404 339.812 183.483 324.177 192.857 321.947C193.981 321.707 195.042 321.235 195.974 320.561C194.28 325.216 201.269 334.898 201.269 334.898C202.081 336.095 203.951 335.346 203.951 335.346C208.446 334.665 216.738 321.714 218.085 319.56C218.678 320.039 219.361 320.394 220.093 320.605V320.605Z" fill="black"/>
<path opacity="0.1" d="M228.688 407.215C226.043 407.845 211.424 411.051 205.884 410.245C199.783 409.35 187.915 408.758 187.915 408.758C187.915 408.758 180.36 409.162 178.043 408.128C178.043 407.845 178.043 407.687 178.043 407.687L182.349 402.528C182.349 402.528 224.022 399.379 227.145 402.528C227.964 403.272 228.404 405.017 228.688 407.215Z" fill="black"/>
<path d="M201.269 335.346C201.269 335.346 193.418 324.467 196.377 320.227L183.111 325.67C183.111 325.67 175.128 324.7 172.251 336.618C171.789 338.601 171.622 340.64 171.753 342.672C171.86 344.467 171.615 347.629 169.569 351.724C166.295 358.275 167.05 373.318 173.736 374.805C180.423 376.291 182.815 375.548 182.815 375.548C182.815 375.548 181.921 402.799 178.055 405.924C174.19 409.048 187.921 408.305 187.921 408.305C187.921 408.305 199.783 408.935 205.884 409.798C211.984 410.661 229.097 406.648 229.097 406.648C229.097 406.648 226.578 395.183 225.672 387.889C224.765 380.594 222.7 365.06 222.7 365.06L237.879 344.486C237.879 344.486 240.555 332.051 231.181 326.545C221.806 321.04 218.274 319.679 218.274 319.679C218.274 319.679 208.83 335.031 203.944 335.774C203.944 335.787 202.081 336.543 201.269 335.346Z" fill="#001224"/>
<path opacity="0.1" d="M183.854 339.667C183.854 339.667 183.709 344.581 184.603 346.514C185.497 348.448 188.765 359.17 188.765 359.17H181.33C181.33 359.17 185.346 354.855 185.05 352.77C184.755 350.685 183.854 339.667 183.854 339.667Z" fill="black"/>
<path d="M205.884 376.733C205.884 376.733 189.451 372.714 187.921 369.293C186.392 365.872 182.167 358.2 182.167 358.2L183.898 355.863L191.894 362.162C191.894 362.162 201.42 369.721 205.884 370.502C210.348 371.284 205.884 376.733 205.884 376.733Z" fill="#FBBEBE"/>
<path opacity="0.05" d="M205.884 376.733C205.884 376.733 189.451 372.714 187.921 369.293C186.392 365.872 182.167 358.2 182.167 358.2L183.898 355.863L191.894 362.162C191.894 362.162 201.42 369.721 205.884 370.502C210.348 371.284 205.884 376.733 205.884 376.733Z" fill="black"/>
<path d="M220.094 357.387V366.307H218.658C211.578 366.307 204.614 368.111 198.423 371.548L195.741 373.034L195.017 373.438L190.402 363.044L194.721 359.17H194.941C195.999 359.27 200.563 359.648 202.496 359C204.429 358.351 206.62 356.392 212.028 357.777C214.698 358.458 216.971 361.45 219.584 360.518L220.094 357.387Z" fill="#FBBEBE"/>
<path opacity="0.1" d="M234.454 341.154L237.432 344.505V352.618C237.432 352.618 234.914 378.232 226.868 381.06C218.822 383.888 204.486 379.422 204.486 379.422C204.486 379.422 200.777 369.595 202.509 368.997C204.24 368.398 217.833 364.814 217.833 364.814C217.833 364.814 217.638 349.79 220.616 345.324C220.616 345.324 218.683 331.327 225.376 331.031C232.068 330.735 234.454 341.154 234.454 341.154Z" fill="black"/>
<path d="M234.889 341.154L237.867 344.505V352.618C237.867 352.618 235.349 378.232 227.296 381.06C219.244 383.888 204.92 379.422 204.92 379.422C204.92 379.422 201.212 369.595 202.943 368.997C204.675 368.398 218.261 364.814 218.261 364.814C218.261 364.814 218.073 349.79 221.051 345.324C221.051 345.324 219.111 331.327 225.81 331.031C232.509 330.735 234.889 341.154 234.889 341.154Z" fill="#001224"/>
<path opacity="0.1" d="M214.112 306.734C214.245 305.755 214.128 304.758 213.772 303.836C213.586 303.381 213.253 303 212.827 302.754C212.401 302.507 211.905 302.41 211.418 302.476C210.158 302.772 209.592 304.428 208.345 304.825C207.294 305.159 206.142 304.416 205.638 303.433C205.216 302.409 205.04 301.3 205.122 300.195C205.122 298.935 205.122 297.707 205.122 296.46C205.122 295.105 205.078 293.644 204.24 292.579C203.201 291.257 200.765 290.69 199.141 290.734C198.056 290.745 197.016 291.163 196.226 291.905C195.828 292.305 195.347 292.611 194.817 292.801C194.286 292.991 193.72 293.059 193.159 293.001C192.665 292.926 192.203 292.711 191.825 292.384C191.447 292.056 191.17 291.628 191.025 291.149C191.022 291.133 191.022 291.116 191.025 291.099C192.29 289.426 193.888 288.033 195.718 287.008C197.547 285.983 199.57 285.349 201.657 285.145C203.744 284.941 205.85 285.172 207.843 285.823C209.837 286.475 211.674 287.532 213.238 288.929C214.803 290.326 216.061 292.032 216.934 293.94C217.807 295.847 218.275 297.915 218.309 300.013C218.343 302.111 217.943 304.193 217.133 306.128C216.323 308.063 215.121 309.81 213.602 311.257C213.854 309.76 214.024 308.25 214.112 306.734Z" fill="black"/>
<path d="M193.153 292.554C192.659 292.477 192.196 292.263 191.817 291.935C191.439 291.608 191.16 291.18 191.013 290.702C190.893 290.223 190.924 289.707 190.78 289.234C190.433 288.063 189.187 287.451 188.349 286.563C186.675 284.787 186.782 281.858 187.965 279.716C188.929 277.99 190.786 276.535 192.731 276.869C193.934 277.083 194.973 277.939 196.194 278.015C197.416 278.091 198.442 277.436 199.512 276.944C202.091 275.775 204.99 275.518 207.735 276.213C208.579 276.381 209.363 276.775 210.001 277.354C210.435 277.898 210.838 278.466 211.21 279.054C212.595 280.825 215.082 281.171 217.292 281.574C219.502 281.977 222.008 282.834 222.732 284.982C223.216 286.393 222.732 287.924 222.473 289.392C222.377 289.693 222.397 290.019 222.53 290.305C222.876 290.878 223.739 290.639 224.419 290.771C225.678 291.036 225.993 292.661 226.037 293.921C226.096 295.382 226.136 296.852 226.157 298.33C226.194 298.878 226.151 299.427 226.031 299.962C225.759 300.725 225.33 301.423 224.771 302.009L219.854 307.918C217.676 310.539 215.365 313.588 215.8 316.97C214.767 317.43 213.546 316.542 213.206 315.458C212.866 314.375 213.137 313.216 213.37 312.107C213.765 310.19 214.024 308.247 214.144 306.293C214.277 305.312 214.16 304.313 213.804 303.389C213.616 302.933 213.283 302.552 212.855 302.306C212.428 302.059 211.931 301.962 211.443 302.028C210.184 302.324 209.623 303.981 208.377 304.378C207.325 304.718 206.173 303.968 205.67 302.986C205.251 301.96 205.074 300.852 205.153 299.748V296.012C205.153 294.658 205.109 293.197 204.272 292.132C203.239 290.809 200.797 290.242 199.172 290.286C198.088 290.297 197.048 290.716 196.257 291.458C195.856 291.863 195.368 292.172 194.831 292.362C194.293 292.552 193.72 292.617 193.153 292.554V292.554Z" fill="#7C5C5C"/>
<path opacity="0.1" d="M196.579 339.295L201.244 358.445C201.244 358.445 204.914 358.427 196.579 339.295Z" fill="black"/>
<path opacity="0.1" d="M212.507 336.089C212.507 336.089 206.4 346.092 208.786 356.429L209.919 356.511C209.919 356.511 207.892 351.724 212.507 336.089Z" fill="black"/>
<path opacity="0.1" d="M216.373 392.676C216.373 392.676 223.865 390.194 224.412 395.952C224.412 395.952 222.996 392.002 216.373 392.676Z" fill="black"/>
<path opacity="0.1" d="M194.721 359.617C194.721 359.617 193.235 370.043 195.911 374.213C191.713 375.693 187.256 376.299 182.815 375.995L181.921 359.617H194.721Z" fill="black"/>
<path opacity="0.1" d="M195.741 373.035L195.017 373.438L190.402 363.044L194.721 359.17H194.941C194.872 359.674 193.669 368.625 195.741 373.035Z" fill="black"/>
<path d="M194.721 359.17C194.721 359.17 193.235 369.595 195.911 373.765C191.712 375.245 187.256 375.852 182.815 375.548L177.608 359.17H194.721Z" fill="#001224"/>
<path d="M181.846 533.076C181.76 533.818 181.43 534.512 180.906 535.046C180.383 535.579 179.697 535.924 178.956 536.024C174.92 536.654 165.18 538.165 162.725 539.337C159.577 540.83 147.25 539.784 146.652 538.298C146.568 537.999 146.543 537.687 146.58 537.379C146.617 537.071 146.714 536.773 146.866 536.502C147.154 535.91 147.558 535.381 148.054 534.948C148.551 534.515 149.129 534.187 149.755 533.983C152.085 533.202 156.479 531.557 157.663 529.831C157.663 529.831 163.141 525.031 164.702 522.442C164.995 521.932 165.41 521.502 165.91 521.19C166.41 520.879 166.979 520.697 167.567 520.66C168.87 520.597 170.318 521.258 170.916 524.112C170.916 524.112 178.056 528.187 179.988 524.616C179.988 524.616 180.284 530.102 181.468 531.608C181.625 531.815 181.739 532.052 181.804 532.304C181.868 532.556 181.883 532.818 181.846 533.076Z" fill="#A27772"/>
<path opacity="0.1" d="M181.846 533.075C181.76 533.818 181.43 534.512 180.906 535.045C180.383 535.579 179.697 535.923 178.956 536.024C174.92 536.653 165.18 538.165 162.725 539.337C159.577 540.83 147.25 539.784 146.652 538.298C146.568 537.999 146.543 537.687 146.58 537.379C146.617 537.071 146.714 536.773 146.866 536.502C147.29 535.597 147.988 534.847 148.861 534.361C150.876 535.696 155.346 537.006 165.18 535.469C174.561 534.001 179.202 532.565 181.468 531.589C181.627 531.799 181.742 532.039 181.807 532.294C181.872 532.549 181.885 532.815 181.846 533.075V533.075Z" fill="black"/>
<g opacity="0.1">
<path opacity="0.1" d="M222.455 289.593C222.458 289.568 222.458 289.543 222.455 289.518C222.749 288.416 222.904 287.282 222.915 286.142C222.82 287.053 222.666 287.958 222.455 288.85C222.398 289.095 222.398 289.349 222.455 289.593V289.593Z" fill="black"/>
<path opacity="0.1" d="M213.773 303.528C214.006 304.065 214.13 304.643 214.138 305.229C214.206 304.421 214.08 303.609 213.773 302.86C213.585 302.403 213.252 302.022 212.825 301.774C212.398 301.527 211.901 301.428 211.412 301.493C210.153 301.789 209.592 303.452 208.346 303.849C207.294 304.183 206.142 303.433 205.638 302.451C205.214 301.427 205.037 300.318 205.122 299.213C205.122 297.953 205.122 296.724 205.122 295.483C205.122 294.129 205.078 292.668 204.241 291.603C203.202 290.274 200.765 289.713 199.135 289.751C198.051 289.763 197.013 290.184 196.226 290.929C195.828 291.328 195.347 291.633 194.816 291.821C194.286 292.01 193.72 292.077 193.16 292.019C192.664 291.945 192.199 291.732 191.82 291.404C191.441 291.076 191.163 290.647 191.019 290.167C190.893 289.688 190.931 289.178 190.786 288.699C190.44 287.527 189.193 286.923 188.356 286.034C187.575 285.168 187.128 284.051 187.097 282.885C187.037 283.573 187.118 284.267 187.334 284.923C187.551 285.579 187.898 286.185 188.356 286.702C189.193 287.59 190.44 288.201 190.786 289.373C190.931 289.846 190.893 290.362 191.019 290.841C191.166 291.32 191.445 291.747 191.823 292.075C192.202 292.402 192.665 292.617 193.16 292.693C193.72 292.75 194.286 292.682 194.817 292.492C195.347 292.303 195.829 291.997 196.226 291.597C197.016 290.863 198.05 290.448 199.128 290.431C200.759 290.381 203.196 290.961 204.234 292.283C205.072 293.348 205.109 294.803 205.116 296.164C205.116 297.424 205.116 298.652 205.116 299.893C205.03 301 205.207 302.112 205.632 303.137C206.136 304.12 207.288 304.863 208.339 304.529C209.598 304.132 210.134 302.476 211.405 302.173C211.894 302.108 212.39 302.206 212.818 302.45C213.246 302.695 213.581 303.074 213.773 303.528V303.528Z" fill="black"/>
<path opacity="0.1" d="M226.006 299.427C225.733 300.191 225.304 300.89 224.746 301.48C223.101 303.446 221.462 305.413 219.829 307.383C217.764 309.871 215.573 312.75 215.731 315.925C215.882 313.014 217.909 310.369 219.829 308.057L224.746 302.148C225.304 301.56 225.732 300.863 226.006 300.101C226.127 299.564 226.169 299.012 226.131 298.463C226.128 298.788 226.086 299.112 226.006 299.427V299.427Z" fill="black"/>
<path opacity="0.1" d="M213.175 314.929C213.094 314.669 213.043 314.401 213.024 314.129C212.982 314.624 213.034 315.122 213.175 315.597C213.508 316.681 214.736 317.569 215.769 317.109C215.769 316.888 215.725 316.668 215.718 316.479C214.698 316.888 213.483 315.988 213.175 314.929Z" fill="black"/>
</g>
<path opacity="0.1" d="M163.745 523.771C163.745 523.771 165.3 526.505 170.941 524.093Z" fill="black"/>
<path opacity="0.1" d="M211.374 524.427C211.374 524.427 216.241 530.152 222.367 526.316Z" fill="black"/>
<path opacity="0.1" d="M225.527 456.696C225.527 456.696 222.09 458.844 221.977 460.073C221.863 461.301 223.752 459.178 223.752 459.178L225.527 456.696Z" fill="black"/>
<path opacity="0.1" d="M226.88 473.163C225.687 474.159 224.202 474.738 222.65 474.813C220.081 474.926 220.295 478.277 221.976 477.269C223.657 476.261 226.88 473.163 226.88 473.163Z" fill="black"/>
<path opacity="0.1" d="M227.536 475.311C227.536 475.311 225.886 483.412 224.545 481.849Z" fill="black"/>
<g opacity="0.5">
<path opacity="0.5" d="M338.249 288.919H296.696V297.739H338.249V288.919Z" fill="#DCE0ED"/>
<path opacity="0.5" d="M433.665 288.919H392.111V297.739H433.665V288.919Z" fill="#DCE0ED"/>
<path opacity="0.5" d="M529.079 288.919H487.526V297.739H529.079V288.919Z" fill="#DCE0ED"/>
</g>
<path opacity="0.1" d="M599.884 507.627C609.248 507.627 616.839 506.343 616.839 504.76C616.839 503.177 609.248 501.894 599.884 501.894C590.52 501.894 582.929 503.177 582.929 504.76C582.929 506.343 590.52 507.627 599.884 507.627Z" fill="white"/>
<path opacity="0.1" d="M72.5922 543.816C81.9562 543.816 89.5472 542.533 89.5472 540.95C89.5472 539.367 81.9562 538.083 72.5922 538.083C63.2282 538.083 55.6372 539.367 55.6372 540.95C55.6372 542.533 63.2282 543.816 72.5922 543.816Z" fill="white"/>
<path d="M562.775 539.759C576.757 539.759 588.091 537.842 588.091 535.476C588.091 533.11 576.757 531.192 562.775 531.192C548.794 531.192 537.459 533.11 537.459 535.476C537.459 537.842 548.794 539.759 562.775 539.759Z" fill="white"/>
<path d="M573.239 528.477C574.395 527.535 575.236 526.263 575.651 524.83C575.965 523.381 575.348 521.648 573.97 521.119C572.421 520.527 570.765 521.598 569.506 522.688C568.247 523.778 566.817 525.006 565.174 524.779C566.018 524.013 566.649 523.041 567.006 521.958C567.364 520.875 567.435 519.718 567.214 518.6C567.144 518.136 566.948 517.7 566.647 517.34C565.785 516.42 564.23 516.81 563.197 517.535C559.923 519.841 559.01 524.288 558.992 528.294C558.664 526.852 558.941 525.346 558.935 523.885C558.929 522.423 558.519 520.735 557.273 519.96C556.499 519.547 555.631 519.343 554.754 519.368C553.281 519.311 551.638 519.456 550.637 520.533C549.378 521.875 549.711 524.118 550.794 525.573C551.877 527.028 553.539 527.967 555.057 528.987C556.276 529.716 557.317 530.708 558.104 531.891C558.193 532.058 558.267 532.234 558.324 532.414H567.554C569.617 531.362 571.529 530.038 573.239 528.477Z" fill="white"/>
<path d="M73.3669 498.43C73.3669 498.43 76.8296 502.959 71.774 509.769C66.7184 516.578 62.5505 522.367 64.2189 526.632C64.2189 526.632 71.8496 513.939 78.0699 513.762C84.2903 513.586 80.198 506.065 73.3669 498.43Z" fill="white"/>
<path opacity="0.1" d="M73.3668 498.43C73.6697 498.868 73.9092 499.348 74.0782 499.853C80.1349 506.972 83.3585 513.617 77.5347 513.781C72.1139 513.939 65.6102 523.639 64.0488 526.09C64.1002 526.28 64.1611 526.467 64.2314 526.651C64.2314 526.651 71.8621 513.957 78.0825 513.781C84.3028 513.605 80.1979 506.064 73.3668 498.43Z" fill="black"/>
<path d="M79.7957 504.199C79.7957 505.793 79.6193 507.084 79.3988 507.084C79.1783 507.084 79.002 505.825 79.002 504.199C79.002 502.574 79.2224 503.355 79.4429 503.355C79.6634 503.355 79.7957 502.605 79.7957 504.199Z" fill="#FFD037"/>
<path d="M82.0048 506.102C80.6072 506.864 79.3858 507.324 79.2851 507.129C79.1843 506.934 80.2231 506.159 81.6208 505.397C83.0184 504.634 82.4707 505.189 82.5714 505.397C82.6722 505.605 83.4024 505.34 82.0048 506.102Z" fill="#FFD037"/>
<path d="M55.1022 498.43C55.1022 498.43 51.6394 502.959 56.695 509.769C61.7507 516.578 65.9186 522.367 64.2502 526.632C64.2502 526.632 56.6258 513.939 50.3991 513.762C44.1724 513.586 48.2711 506.065 55.1022 498.43Z" fill="white"/>
<path opacity="0.1" d="M55.1022 498.43C54.7993 498.868 54.5598 499.348 54.3907 499.853C48.334 506.972 45.1105 513.617 50.9343 513.781C56.3551 513.939 62.8588 523.639 64.4202 526.09C64.3696 526.281 64.3065 526.468 64.2313 526.651C64.2313 526.651 56.6069 513.957 50.3802 513.781C44.1535 513.605 48.2711 506.064 55.1022 498.43Z" fill="black"/>
<path d="M48.668 504.199C48.668 505.793 48.8506 507.084 49.0711 507.084C49.2916 507.084 49.468 505.825 49.468 504.199C49.468 502.574 49.2475 503.355 49.027 503.355C48.8066 503.355 48.668 502.605 48.668 504.199Z" fill="#FFD037"/>
<path d="M46.4643 506.102C47.8619 506.864 49.077 507.324 49.184 507.129C49.2911 506.934 48.246 506.159 46.8483 505.397C45.4507 504.634 45.9984 505.189 45.8914 505.397C45.7843 505.605 45.0666 505.34 46.4643 506.102Z" fill="#FFD037"/>
<path d="M49.7881 526.059C49.7881 526.059 59.4587 525.756 62.38 523.684C65.3013 521.611 77.2573 519.123 77.9813 522.455C78.7054 525.788 92.5124 539.016 81.5952 539.104C70.678 539.193 56.2288 537.404 53.3201 535.634C50.4114 533.863 49.7881 526.059 49.7881 526.059Z" fill="#A8A8A8"/>
<path opacity="0.2" d="M81.7655 537.945C70.8483 538.033 56.3929 536.244 53.4841 534.474C51.2743 533.12 50.3865 528.276 50.0969 526.046H49.7695C49.7695 526.046 50.3991 533.844 53.2953 535.621C56.1914 537.397 70.6532 539.18 81.5703 539.092C84.7183 539.092 85.8075 537.945 85.7508 536.282C85.3101 537.303 84.1076 537.926 81.7655 537.945Z" fill="black"/>
<path d="M293.756 350.508C293.756 337.632 304.226 327.742 317.101 327.742H317.284V321.884H317.101C300.996 321.884 287.901 334.401 287.901 350.508C287.9 354.675 288.793 358.794 290.519 362.586C292.245 366.379 294.763 369.757 297.905 372.493L302.054 368.342C299.455 366.154 297.366 363.424 295.933 360.344C294.499 357.263 293.756 353.906 293.756 350.508V350.508Z" fill="white"/>
<path opacity="0.5" d="M317.869 321.89V327.749C321.619 327.774 325.307 328.702 328.622 330.455C331.936 332.209 334.78 334.735 336.912 337.821C339.044 340.907 340.402 344.461 340.87 348.183C341.338 351.905 340.903 355.686 339.602 359.204C338.301 362.722 336.172 365.875 333.395 368.395C330.618 370.916 327.275 372.73 323.648 373.684C320.022 374.638 316.22 374.703 312.563 373.876C308.906 373.048 305.502 371.35 302.64 368.927L298.478 373.079C302.024 376.181 306.268 378.378 310.847 379.483C315.426 380.588 320.204 380.568 324.774 379.424C329.343 378.28 333.568 376.047 337.088 372.915C340.607 369.783 343.317 365.845 344.986 361.438C346.654 357.031 347.232 352.285 346.669 347.606C346.107 342.927 344.421 338.453 341.755 334.568C339.09 330.682 335.524 327.499 331.363 325.292C327.201 323.084 322.567 321.917 317.857 321.89H317.869Z" fill="white"/>
<path opacity="0.5" d="M509.266 327.446C522.135 327.446 532.02 337.922 532.02 350.804C532.02 350.861 532.02 350.924 532.02 350.987H537.875C537.875 350.924 537.875 350.861 537.875 350.804C537.875 334.697 525.365 321.588 509.266 321.588C505.101 321.587 500.985 322.479 497.194 324.206C493.403 325.933 490.027 328.454 487.293 331.598L491.442 335.749C493.629 333.149 496.357 331.058 499.436 329.624C502.515 328.19 505.87 327.447 509.266 327.446V327.446Z" fill="white"/>
<path d="M537.869 351.573H532.013C531.988 355.324 531.06 359.014 529.308 362.331C527.556 365.647 525.031 368.493 521.946 370.626C518.862 372.759 515.31 374.118 511.59 374.586C507.87 375.055 504.092 374.619 500.575 373.317C497.059 372.016 493.908 369.885 491.389 367.107C488.869 364.328 487.056 360.983 486.103 357.355C485.15 353.727 485.084 349.922 485.911 346.263C486.739 342.604 488.435 339.199 490.857 336.335L486.727 332.184C483.626 335.732 481.43 339.978 480.326 344.559C479.221 349.141 479.242 353.921 480.385 358.493C481.528 363.065 483.76 367.293 486.89 370.814C490.02 374.336 493.956 377.047 498.361 378.717C502.766 380.386 507.509 380.964 512.186 380.401C516.862 379.838 521.333 378.151 525.217 375.484C529.101 372.817 532.281 369.25 534.488 365.086C536.694 360.922 537.861 356.286 537.887 351.573H537.869Z" fill="white"/>
<path opacity="0.5" d="M424.397 323.604L423.232 329.437C431.801 332.895 437.278 341.298 437.278 351.094C437.28 355.303 436.144 359.435 433.991 363.051C431.838 366.668 428.748 369.635 425.047 371.638C421.347 373.642 417.175 374.607 412.971 374.432C408.768 374.258 404.689 372.95 401.168 370.646C397.647 368.343 394.813 365.13 392.967 361.347C391.121 357.565 390.331 353.353 390.681 349.158C391.031 344.964 392.508 340.941 394.955 337.517C397.402 334.093 400.729 331.395 404.584 329.708L401.99 324.448C397.205 326.603 393.089 330.009 390.075 334.307C387.062 338.605 385.262 343.637 384.866 348.872C384.47 354.107 385.491 359.352 387.823 364.056C390.155 368.759 393.711 372.746 398.117 375.598C402.523 378.45 407.616 380.06 412.86 380.26C418.103 380.46 423.304 379.242 427.914 376.734C432.524 374.226 436.373 370.521 439.055 366.009C441.738 361.496 443.156 356.344 443.159 351.094C443.159 338.451 435.679 327.667 424.397 323.604Z" fill="white"/>
<path d="M414.695 327.402C417.491 327.401 420.258 327.976 422.823 329.091L423.987 323.264C421.022 322.122 417.872 321.539 414.695 321.544C410.57 321.544 406.492 322.422 402.732 324.12L405.352 329.368C408.295 328.069 411.477 327.399 414.695 327.402V327.402Z" fill="white"/>
</g>
<defs>
<linearGradient id="paint0_linear" x1="192.391" y1="540.95" x2="192.391" y2="274.916" gradientUnits="userSpaceOnUse">
<stop stop-color="#808080" stop-opacity="0.25"/>
<stop offset="0.54" stop-color="#808080" stop-opacity="0.12"/>
<stop offset="1" stop-color="#808080" stop-opacity="0.1"/>
</linearGradient>
<clipPath id="clip0">
<rect width="711" height="547" fill="white"/>
</clipPath>
</defs>
</svg>
